<?xml version="1.0" encoding="utf-8"?>
<!-- Generator: Adobe Illustrator 27.5.0, SVG Export Plug-In . SVG Version: 6.00 Build 0)  -->
<svg version="1.1" xmlns="http://www.w3.org/2000/svg" xmlns:xlink="http://www.w3.org/1999/xlink" x="0px" y="0px"
	 viewBox="0 0 500 500" style="enable-background:new 0 0 500 500;" xml:space="preserve">
<g id="BACKGROUND">
	<g>
		<rect style="fill:#DBF2EA;" width="500" height="500"/>
		<path style="opacity:0.1;fill:#58325C;" d="M4.634,458.915c19.65-15.272,37.712-32.533,54.19-51.172
			c61.617-69.698,103.507-156.75,130.163-245.352C204.878,109.567,214.905,54.967,217.831,0H0v462.433
			C1.553,461.276,3.1,460.107,4.634,458.915z"/>
		<path style="opacity:0.1;fill:#58325C;" d="M495.366,458.915c-19.65-15.272-37.712-32.533-54.19-51.172
			c-61.617-69.698-103.507-156.75-130.163-245.352C295.122,109.567,285.095,54.967,282.169,0H500v462.433
			C498.447,461.276,496.9,460.107,495.366,458.915z"/>
		<rect y="404" style="opacity:0.1;fill:#58325C;" width="500" height="96"/>
	</g>
</g>
<g id="OBJECTS">
	<g>
		<g>
			<path style="fill:#FFF3DA;" d="M247.523,103.207c0-0.27-0.222-0.56-0.569-0.486c-45.051,9.642-87.372,31.263-121.836,61.805
				c-9.622,8.527-19.109,17.723-27.033,27.883c-0.039-0.049-0.077-0.099-0.116-0.148c-0.269-0.335-0.861,0.115-0.601,0.463
				c0.015,0.02,0.029,0.042,0.045,0.068c-0.122-0.027-0.254,0.012-0.333,0.159c-13.775,25.412-17.899,55.008-21.088,83.344
				c-2.571,22.838-4.189,45.791-4.616,68.771c-0.416,22.452,1.842,44.501,2.712,66.818c0.018,0.45,0.035,0.901,0.052,1.351
				c0.078,2.001,0.082,4.019,0.24,6.015c0.07,0.879,0.167,1.768,0.734,2.486c1.225,1.551,4.038,1.797,6.172,1.989
				c0.251,1.518,0.661,2.961,1.405,4.103c1.261,1.935,3.559,2.614,5.74,2.827c3.818,0.372,7.795-0.071,11.621-0.186
				c2.676-0.081,6.72,0.555,8.722-1.7c0.547-0.616,0.893-1.35,1.114-2.142c0.431,0.215,0.902,0.397,1.421,0.54
				c4.003,1.097,8.633,0.879,12.705,0.385c2.747-0.333,5.865-0.475,7.124-3.302c1.505-3.378,1.31-7.73,1.13-11.324
				c-0.189-3.774-0.496-7.547-0.801-11.316c0.193-24.997-0.813-50-3.049-74.901c-2.814-31.349-7.537-62.533-14.177-93.301
				c-3.027-14.027-6.637-28.616-15.526-40.19c27.114,3.406,55.818,1.138,81.397-8.761c22.433-8.682,42.31-23.972,55.136-44.475
				c6.955-11.117,11.691-23.653,13.02-36.731C248.318,102.773,247.626,102.778,247.523,103.207z"/>
			<path style="fill:#A3CCCA;" d="M103.574,235.792c3.937,3.011,8.24,5.541,12.758,7.645c-0.675-3.348-1.369-6.691-2.089-10.029
				c-3.027-14.027-6.637-28.616-15.526-40.19c7.898,0.992,15.931,1.497,23.982,1.477c1.345-1.709,2.554-3.529,3.636-5.412
				c2.935-5.105,4.964-10.673,6.552-16.328c1.677-5.974,2.985-12.083,3.975-18.24c-4.006,3.159-7.925,6.429-11.744,9.814
				c-9.622,8.527-19.109,17.723-27.033,27.883c-0.039-0.049-0.077-0.099-0.116-0.148c-0.269-0.335-0.861,0.115-0.601,0.463
				c0.015,0.02,0.029,0.042,0.045,0.068c-0.122-0.027-0.254,0.012-0.333,0.159c-4.065,7.499-7.284,15.364-9.892,23.452
				C91.37,223.831,96.716,230.547,103.574,235.792z"/>
			<path style="fill:#A3CCCA;" d="M79.074,294.449c11.592,16.879,29.663,26.954,49.199,30.687
				c-1.213-13.202-2.764-26.374-4.655-39.497c-13.354-1.45-25.954-7.247-35.917-16.244c-3.593-3.244-6.765-6.933-9.514-10.916
				c-0.825,5.961-1.532,11.916-2.196,17.816c-0.412,3.665-0.791,7.334-1.154,11.005C76.103,289.754,77.493,292.147,79.074,294.449z"
				/>
			<path style="fill:#A3CCCA;" d="M110.255,410.672c7.149,2.711,14.577,4.881,22.133,6.364c0.012-1.415-0.054-2.813-0.119-4.112
				c-0.189-3.774-0.496-7.547-0.801-11.316c0.061-7.837-0.009-15.674-0.187-23.508c-0.884-0.125-1.768-0.259-2.649-0.415
				c-23.038-4.074-44.589-18.296-57.132-38.012c-0.048,1.797-0.092,3.595-0.125,5.393c-0.24,12.945,0.41,25.756,1.169,38.562
				C81.796,396.301,95.748,405.171,110.255,410.672z"/>
			<path style="fill:#A3CCCA;" d="M171.124,131.681c-0.926,7.622-1.983,15.22-3.706,22.726c-2.896,12.611-7.693,24.86-13.921,36.207
				c-0.263,0.479-0.531,0.96-0.802,1.441c5.25-0.94,10.444-2.136,15.549-3.608c2.603-1.806,5.01-3.909,7.199-6.13
				c9.543-9.686,15.729-22.735,19.72-35.591c1.999-6.441,3.501-12.947,4.442-19.626c0.459-3.259,0.661-6.513,0.792-9.773
				C190.361,121.515,180.584,126.317,171.124,131.681z"/>
			<path style="fill:#A3CCCA;" d="M247.523,103.207c0-0.27-0.222-0.56-0.569-0.486c-6.251,1.338-12.447,2.915-18.579,4.706
				c0.426,3.807,0.523,7.644,0.353,11.481c-0.663,14.959-4.372,29.741-11.624,42.766c6.957-6.369,13.1-13.626,18.146-21.693
				c6.955-11.117,11.691-23.653,13.02-36.731C248.318,102.773,247.626,102.778,247.523,103.207z"/>
			<path style="opacity:0.1;fill:#58325C;" d="M236.051,125.709c-18.622,19.183-41.412,34.238-65.628,45.402
				c-12.103,5.58-24.626,10.225-37.461,13.822c-6.247,1.751-12.541,3.266-18.939,4.349c-4.717,0.799-9.848,1.701-14.77,1.655
				c-0.393,0.489-0.784,0.979-1.17,1.473c-0.039-0.049-0.077-0.099-0.116-0.148c-0.269-0.335-0.861,0.115-0.601,0.463
				c0.015,0.02,0.029,0.042,0.045,0.068c-0.122-0.027-0.254,0.012-0.333,0.159c-0.008,0.016-0.016,0.031-0.025,0.047
				c4.968,8.935,6.792,19.714,8.047,29.646c1.628,12.887,2.706,25.852,4.188,38.758c3.084,26.874,6.525,53.706,9.53,80.589
				c0.922,8.25,1.757,16.367,2.841,24.378c0.966,7.141,1.843,14.304,2.212,21.505c0.519,10.125,1.455,29.565-11.166,33.244
				c-2.229,0.65-4.546,0.805-6.852,0.717c-2.44-0.093-4.394,0.209-6.697,1.075c-4.522,1.7-8.791,4.01-13.302,5.747
				c-0.566,0.218-1.136,0.426-1.71,0.623c1.236,0.846,2.785,1.225,4.287,1.372c3.818,0.373,7.795-0.071,11.621-0.186
				c2.676-0.081,6.72,0.555,8.722-1.7c0.547-0.616,0.893-1.35,1.114-2.142c0.431,0.215,0.902,0.397,1.421,0.54
				c4.003,1.097,8.633,0.879,12.705,0.385c2.747-0.333,5.865-0.475,7.124-3.302c1.505-3.378,1.31-7.73,1.13-11.324
				c-0.189-3.774-0.496-7.547-0.801-11.316c0.193-24.997-0.813-50-3.049-74.901c-2.814-31.349-7.536-62.533-14.176-93.301
				c-3.027-14.027-6.637-28.616-15.526-40.19c27.114,3.406,55.818,1.138,81.397-8.761c22.433-8.682,42.31-23.972,55.136-44.475
				c5.038-8.054,8.904-16.855,11.161-26.065C243.186,118,239.726,121.923,236.051,125.709z"/>
			<path style="fill:#FFF3DA;" d="M248.863,103.207c0-0.27,0.222-0.56,0.569-0.486c45.05,9.642,87.372,31.263,121.836,61.805
				c9.622,8.527,19.109,17.723,27.033,27.883c0.039-0.049,0.077-0.099,0.116-0.148c0.269-0.335,0.862,0.115,0.601,0.463
				c-0.015,0.02-0.029,0.042-0.044,0.068c0.122-0.027,0.254,0.012,0.333,0.159c13.775,25.412,17.899,55.008,21.088,83.344
				c2.571,22.838,4.189,45.791,4.616,68.771c0.417,22.452-1.842,44.501-2.712,66.818c-0.018,0.45-0.035,0.901-0.052,1.351
				c-0.078,2.001-0.082,4.019-0.24,6.015c-0.069,0.879-0.167,1.768-0.734,2.486c-1.225,1.551-4.038,1.797-6.172,1.989
				c-0.252,1.518-0.661,2.961-1.405,4.103c-1.261,1.935-3.559,2.614-5.74,2.827c-3.818,0.372-7.794-0.071-11.621-0.186
				c-2.676-0.081-6.72,0.555-8.722-1.7c-0.547-0.616-0.893-1.35-1.114-2.142c-0.431,0.215-0.902,0.397-1.422,0.54
				c-4.003,1.097-8.633,0.879-12.705,0.385c-2.747-0.333-5.865-0.475-7.124-3.302c-1.505-3.378-1.31-7.73-1.13-11.324
				c0.189-3.774,0.496-7.547,0.801-11.316c-0.193-24.997,0.813-50,3.049-74.901c2.814-31.349,7.536-62.533,14.177-93.301
				c3.027-14.027,6.637-28.616,15.526-40.19c-27.114,3.406-55.818,1.138-81.397-8.761c-22.433-8.682-42.31-23.972-55.136-44.475
				c-6.955-11.117-11.691-23.653-13.02-36.731C248.068,102.773,248.76,102.778,248.863,103.207z"/>
			<path style="fill:#A3CCCA;" d="M269.213,136.878c-2.082-6.596-3.482-13.46-4.014-20.362c-0.244-3.171-0.33-6.565-0.053-9.911
				c-5.195-1.454-10.435-2.754-15.713-3.884c-0.346-0.074-0.569,0.216-0.569,0.486c-0.104-0.429-0.795-0.434-0.747,0.042
				c1.329,13.078,6.065,25.614,13.02,36.731c5.637,9.012,12.638,17.015,20.618,23.895C276.37,155.5,272.182,146.287,269.213,136.878
				z"/>
			<path style="fill:#A3CCCA;" d="M327.096,157.096c-1.27-5.94-2.038-11.951-2.474-18.006c-0.168-2.333-0.349-5.13-0.072-7.814
				c-7.518-4.232-15.236-8.107-23.121-11.604c-0.567,4.445-0.318,9.113-0.201,13.328c0.48,17.243,4.402,34.749,12.098,50.271
				c0.976,0.407,1.958,0.803,2.944,1.184c8.171,3.162,16.66,5.542,25.315,7.21C334.199,181.579,329.686,169.217,327.096,157.096z"/>
			<path style="fill:#A3CCCA;" d="M364.896,394.313c-0.004,2.432,0.003,4.864,0.022,7.295c-0.305,3.769-0.612,7.541-0.801,11.316
				c-0.18,3.594-0.375,7.946,1.13,11.324c1.26,2.827,4.378,2.969,7.124,3.302c4.072,0.494,8.702,0.712,12.705-0.385
				c0.519-0.142,0.99-0.325,1.421-0.54c0.221,0.792,0.567,1.526,1.114,2.142c2.002,2.255,6.047,1.62,8.722,1.7
				c3.827,0.116,7.803,0.559,11.621,0.186c2.181-0.213,4.479-0.892,5.74-2.827c0.744-1.142,1.154-2.585,1.405-4.103
				c2.133-0.192,4.947-0.438,6.172-1.989c0.567-0.718,0.665-1.608,0.734-2.486c0.158-1.996,0.162-4.014,0.24-6.014
				c0.018-0.45,0.035-0.901,0.052-1.351c0.707-18.135,2.331-36.093,2.691-54.234C411.74,377.569,388.46,391.088,364.896,394.313z"/>
			<path style="fill:#A3CCCA;" d="M377.224,334.573c18.61-7.793,36.842-23.167,44.796-42.382
				c-0.491-5.304-1.029-10.603-1.625-15.896c-0.594-5.28-1.225-10.603-1.94-15.935c-8.4,20.131-25.489,39.409-47.387,37.802
				c-1.21,9.495-2.245,19.012-3.101,28.544c-0.339,3.771-0.639,7.546-0.922,11.321C370.532,337.141,373.947,335.945,377.224,334.573
				z"/>
			<path style="fill:#A3CCCA;" d="M397.669,193.216c-8.889,11.574-12.499,26.163-15.526,40.19c-0.958,4.441-1.872,8.892-2.751,13.35
				c6.921-3.154,12.993-8.461,17.858-14.155c4.211-4.929,7.64-10.478,10.494-16.289c0.291-0.592,0.565-1.191,0.837-1.792
				c-2.495-7.426-5.524-14.653-9.273-21.569c-0.08-0.147-0.211-0.186-0.333-0.159c0.015-0.026,0.029-0.047,0.044-0.068
				c0.261-0.348-0.331-0.798-0.601-0.463c-0.039,0.049-0.077,0.099-0.116,0.148c-7.924-10.161-17.411-19.357-27.033-27.883
				c-3.909-3.464-7.923-6.808-12.028-10.036c0.305,13.921,4.6,27.797,11.143,40.164
				C379.539,194.842,388.691,194.344,397.669,193.216z"/>
			<path style="opacity:0.1;fill:#58325C;" d="M394.435,193.591c-0.059-0.717-0.11-1.434-0.164-2.152
				c-2.129,0.045-4.266,0.04-6.409-0.022c-15.651-0.449-31.221-3.365-46.134-8.073c-13.821-4.363-27.439-10.197-39.647-18.065
				c-16.583-10.687-35.178-22.591-47.834-38.515c1.935,4.577,4.251,8.998,6.889,13.215c12.826,20.503,32.703,35.793,55.136,44.475
				C340.837,193.962,368.282,196.427,394.435,193.591z"/>
			<path style="opacity:0.1;fill:#58325C;" d="M425.011,345.066c-0.426-22.981-2.045-45.933-4.616-68.771
				c-3.19-28.335-7.313-57.932-21.088-83.344c-0.08-0.147-0.211-0.186-0.333-0.159c0.015-0.026,0.029-0.047,0.044-0.068
				c0.261-0.348-0.331-0.798-0.601-0.463c-0.039,0.049-0.077,0.099-0.116,0.148c-0.281-0.361-0.569-0.717-0.853-1.075
				c-0.036,0.002-0.073,0.002-0.109,0.004c4.877,21.592,8.879,43.403,12.168,65.285c3.344,22.242,5.73,44.649,5.558,67.168
				c-0.088,11.556-0.429,23.079-0.178,34.638c0.208,9.577,0.501,19.16,0.874,28.732c0.388,9.925,2.348,35.282-13.461,34.663
				c-2.806-0.11-6.546-2.741-9.204-1.492c-1.497,0.703-1.861,2.334-2.365,3.802c-0.638,1.859-1.28,3.632-2.473,5.208
				c2.137,1.555,5.66,1.053,8.074,1.125c3.827,0.116,7.803,0.559,11.621,0.186c2.181-0.213,4.479-0.892,5.74-2.827
				c0.744-1.142,1.154-2.585,1.405-4.103c2.133-0.192,4.947-0.438,6.172-1.989c0.567-0.718,0.665-1.608,0.734-2.486
				c0.158-1.996,0.162-4.014,0.24-6.014c0.018-0.45,0.035-0.901,0.052-1.351C423.168,389.567,425.427,367.519,425.011,345.066z"/>
			<g>
				<path style="fill:#568F8C;" d="M98.049,201.383c0.678-0.072,1.353-0.453,1.68-1.048c0.741-1.349-0.355-2.002-1.709-2.27
					c0.426-0.273,0.801-0.584,1.065-0.928c0.621-0.809,0.662-2.088-0.283-2.679c-0.787-0.492-1.692-0.254-2.54,0.329
					c-0.006-0.025-0.009-0.05-0.016-0.075c-0.185-0.67-0.767-1.345-1.534-1.159c-0.665,0.161-0.983,0.841-1.168,1.508
					c-0.646-0.41-1.431-0.602-2.134-0.284c-1.024,0.462-1.117,1.794-0.556,2.654c0.264,0.405,0.696,0.709,1.184,0.898
					c-1.597,0.867-2.797,2.433-1.127,3.758c1.249,0.991,2.459,0.443,3.265-0.605c0.547,1.286,1.688,2.387,2.843,2.022
					C97.964,203.205,98.203,202.253,98.049,201.383z"/>
				<path style="fill:#FFF3DA;" d="M96.799,192.007c0.678-0.072,1.353-0.453,1.68-1.048c0.742-1.349-0.355-2.002-1.709-2.27
					c0.426-0.273,0.801-0.584,1.065-0.928c0.621-0.809,0.662-2.088-0.283-2.679c-0.787-0.492-1.692-0.254-2.54,0.329
					c-0.006-0.025-0.009-0.05-0.016-0.075c-0.185-0.67-0.767-1.345-1.534-1.159c-0.665,0.161-0.983,0.841-1.168,1.508
					c-0.646-0.41-1.431-0.602-2.134-0.284c-1.024,0.462-1.117,1.794-0.556,2.654c0.264,0.405,0.696,0.709,1.184,0.898
					c-1.597,0.867-2.797,2.433-1.127,3.758c1.249,0.991,2.459,0.443,3.265-0.605c0.547,1.286,1.688,2.388,2.843,2.022
					C96.714,193.829,96.953,192.876,96.799,192.007z"/>
				<path style="fill:#4C807D;" d="M92.109,190.824c0.316-0.772,0.297-1.721-0.153-2.417c-1.022-1.581-2.362-0.78-3.436,0.523
					c-0.047-0.618-0.164-1.201-0.381-1.685c-0.511-1.139-1.864-1.925-3.05-1.25c-0.987,0.562-1.256,1.674-1.12,2.927
					c-0.03-0.008-0.059-0.02-0.09-0.027c-0.829-0.19-1.894,0.045-2.138,0.979c-0.212,0.81,0.335,1.546,0.946,2.133
					c-0.816,0.457-1.479,1.192-1.545,2.133c-0.097,1.371,1.284,2.244,2.536,2.139c0.589-0.049,1.168-0.338,1.654-0.754
					c0.007,2.223,0.996,4.424,3.393,3.395c1.791-0.77,1.904-2.391,1.243-3.867c1.702,0.157,3.551-0.431,3.827-1.887
					C94.021,191.974,93.134,191.163,92.109,190.824z"/>
				<path style="fill:#4C807D;" d="M101.488,184.97c0.582-0.562,0.935-1.413,0.806-2.208c-0.292-1.804-1.795-1.614-3.257-0.875
					c0.199-0.567,0.323-1.131,0.318-1.646c-0.01-1.211-0.906-2.437-2.222-2.3c-1.096,0.114-1.768,0.998-2.137,2.164
					c-0.024-0.019-0.045-0.04-0.069-0.059c-0.663-0.492-1.7-0.699-2.282,0.036c-0.505,0.637-0.305,1.505,0.009,2.264
					c-0.904,0.088-1.778,0.482-2.204,1.293c-0.621,1.18,0.266,2.495,1.419,2.889c0.543,0.186,1.169,0.155,1.763-0.025
					c-0.861,1.978-0.839,4.32,1.691,4.339c1.892,0.014,2.624-1.382,2.612-2.951c1.451,0.803,3.323,1.001,4.137-0.185
					C102.739,186.737,102.267,185.671,101.488,184.97z"/>
				<path style="fill:#FFF3DA;" d="M113.387,191.73c0.269-0.626,0.266-1.402-0.093-1.978c-0.814-1.306-1.92-0.669-2.815,0.382
					c-0.03-0.505-0.118-0.984-0.289-1.382c-0.403-0.938-1.498-1.598-2.476-1.063c-0.814,0.446-1.049,1.352-0.955,2.377
					c-0.025-0.007-0.048-0.017-0.073-0.023c-0.675-0.166-1.549,0.011-1.761,0.771c-0.184,0.659,0.253,1.268,0.744,1.756
					c-0.673,0.363-1.224,0.954-1.291,1.723c-0.098,1.119,1.02,1.851,2.044,1.782c0.482-0.033,0.959-0.261,1.362-0.594
					c-0.024,1.817,0.755,3.629,2.727,2.82c1.474-0.605,1.588-1.929,1.068-3.144c1.389,0.151,2.908-0.305,3.153-1.492
					C114.934,192.695,114.22,192.02,113.387,191.73z"/>
				<path style="fill:#568F8C;" d="M108.386,182.978c0.269-0.626,0.266-1.402-0.093-1.978c-0.814-1.306-1.92-0.669-2.815,0.382
					c-0.03-0.505-0.118-0.984-0.289-1.382c-0.403-0.938-1.498-1.598-2.476-1.063c-0.814,0.446-1.049,1.352-0.955,2.377
					c-0.025-0.007-0.048-0.017-0.073-0.023c-0.675-0.166-1.549,0.011-1.761,0.771c-0.184,0.659,0.253,1.268,0.744,1.756
					c-0.673,0.363-1.224,0.954-1.291,1.723c-0.098,1.119,1.02,1.851,2.044,1.782c0.482-0.032,0.959-0.261,1.362-0.594
					c-0.024,1.817,0.755,3.629,2.727,2.82c1.474-0.605,1.588-1.929,1.068-3.144c1.389,0.151,2.908-0.305,3.153-1.492
					C109.933,183.943,109.219,183.269,108.386,182.978z"/>
				<path style="fill:#4C807D;" d="M103.984,197.814c-0.519-0.653-1.356-1.1-2.184-1.048c-1.879,0.119-1.835,1.679-1.223,3.253
					c-0.562-0.261-1.128-0.444-1.656-0.491c-1.243-0.111-2.591,0.685-2.581,2.049c0.008,1.135,0.847,1.914,2.006,2.408
					c-0.022,0.023-0.046,0.042-0.067,0.065c-0.571,0.631-0.887,1.674-0.191,2.344c0.603,0.581,1.513,0.463,2.323,0.218
					c0,0.936,0.317,1.872,1.106,2.391c1.149,0.755,2.585-0.023,3.106-1.167c0.245-0.538,0.276-1.184,0.151-1.811
					c1.943,1.081,4.347,1.293,4.62-1.3c0.204-1.939-1.155-2.83-2.766-2.975c0.969-1.408,1.359-3.309,0.224-4.262
					C105.921,196.708,104.781,197.085,103.984,197.814z"/>
				<path style="fill:#FFF3DA;" d="M91.482,197.189c-0.519-0.653-1.356-1.1-2.184-1.048c-1.879,0.119-1.835,1.679-1.223,3.253
					c-0.562-0.261-1.128-0.444-1.656-0.491c-1.243-0.111-2.591,0.685-2.581,2.049c0.008,1.135,0.847,1.914,2.006,2.408
					c-0.022,0.023-0.046,0.042-0.067,0.065c-0.571,0.631-0.887,1.674-0.191,2.344c0.603,0.581,1.513,0.463,2.324,0.218
					c0,0.936,0.317,1.872,1.106,2.391c1.148,0.755,2.585-0.023,3.105-1.167c0.245-0.538,0.276-1.184,0.151-1.811
					c1.943,1.081,4.347,1.293,4.62-1.3c0.204-1.939-1.155-2.83-2.766-2.975c0.969-1.408,1.359-3.309,0.224-4.262
					C93.419,196.083,92.279,196.46,91.482,197.189z"/>
				<path style="fill:#568F8C;" d="M105.961,188.645c-0.206-0.783-0.776-1.506-1.532-1.782c-1.716-0.627-2.285,0.777-2.355,2.414
					c-0.397-0.451-0.829-0.835-1.28-1.082c-1.062-0.583-2.569-0.401-3.093,0.815c-0.436,1.012,0.007,2.031,0.844,2.921
					c-0.028,0.012-0.057,0.019-0.085,0.032c-0.753,0.338-1.441,1.142-1.084,2.008c0.309,0.751,1.164,1.001,1.98,1.099
					c-0.365,0.831-0.448,1.787,0.051,2.555c0.726,1.118,2.306,0.987,3.214,0.174c0.427-0.383,0.707-0.945,0.84-1.55
					c1.305,1.718,3.358,2.844,4.612,0.645c0.937-1.643,0.077-2.965-1.298-3.722c1.41-0.873,2.497-2.41,1.861-3.7
					C108.114,188.417,106.953,188.308,105.961,188.645z"/>
			</g>
			<g>
				<path style="fill:#568F8C;" d="M242.267,113.175c0.111,0.673,0.531,1.325,1.143,1.616c1.39,0.662,1.978-0.47,2.167-1.838
					c0.298,0.41,0.629,0.766,0.988,1.009c0.844,0.573,2.123,0.54,2.658-0.438c0.446-0.814,0.156-1.704-0.476-2.517
					c0.025-0.007,0.05-0.012,0.074-0.02c0.658-0.224,1.299-0.843,1.068-1.598c-0.2-0.655-0.897-0.932-1.573-1.079
					c0.372-0.668,0.518-1.463,0.16-2.147c-0.521-0.995-1.856-1.011-2.682-0.401c-0.389,0.287-0.667,0.736-0.828,1.234
					c-0.958-1.544-2.591-2.651-3.817-0.907c-0.916,1.304-0.3,2.48,0.793,3.224c-1.252,0.621-2.286,1.823-1.854,2.955
					C240.444,113.196,241.408,113.379,242.267,113.175z"/>
				<path style="fill:#FFF3DA;" d="M251.555,111.383c0.111,0.673,0.531,1.325,1.143,1.616c1.39,0.662,1.978-0.47,2.167-1.838
					c0.298,0.41,0.629,0.766,0.988,1.009c0.844,0.573,2.123,0.54,2.658-0.438c0.446-0.814,0.155-1.704-0.476-2.517
					c0.025-0.007,0.049-0.012,0.074-0.02c0.658-0.224,1.299-0.843,1.068-1.598c-0.2-0.655-0.896-0.932-1.573-1.079
					c0.372-0.668,0.518-1.463,0.16-2.147c-0.521-0.995-1.856-1.011-2.682-0.401c-0.389,0.287-0.667,0.736-0.828,1.234
					c-0.958-1.544-2.591-2.651-3.817-0.907c-0.916,1.304-0.3,2.48,0.793,3.224c-1.252,0.621-2.286,1.823-1.854,2.955
					C249.732,111.404,250.697,111.587,251.555,111.383z"/>
				<path style="fill:#4C807D;" d="M252.464,106.632c0.789,0.271,1.735,0.197,2.404-0.293c1.519-1.112,0.642-2.403-0.722-3.4
					c0.614-0.083,1.19-0.233,1.66-0.478c1.107-0.576,1.814-1.972,1.071-3.117c-0.618-0.952-1.744-1.156-2.987-0.949
					c0.006-0.031,0.016-0.06,0.021-0.091c0.141-0.839-0.155-1.888-1.101-2.078c-0.821-0.165-1.524,0.424-2.075,1.068
					c-0.504-0.788-1.275-1.407-2.219-1.419c-1.374-0.017-2.165,1.412-1.988,2.655c0.083,0.585,0.405,1.146,0.848,1.607
					c-2.219,0.136-4.359,1.251-3.192,3.584c0.872,1.744,2.497,1.762,3.932,1.017c-0.058,1.708,0.637,3.52,2.106,3.712
					C251.428,108.608,252.185,107.676,252.464,106.632z"/>
				<path style="fill:#4C807D;" d="M258.853,115.656c0.595,0.549,1.465,0.851,2.251,0.677c1.784-0.396,1.507-1.885,0.684-3.303
					c0.578,0.166,1.148,0.257,1.661,0.222c1.209-0.081,2.381-1.046,2.167-2.352c-0.178-1.087-1.099-1.708-2.284-2.007
					c0.017-0.025,0.038-0.047,0.054-0.073c0.453-0.69,0.599-1.738-0.168-2.276c-0.665-0.467-1.52-0.217-2.26,0.14
					c-0.14-0.897-0.585-1.747-1.419-2.126c-1.214-0.551-2.475,0.41-2.802,1.584c-0.154,0.552-0.087,1.176,0.127,1.759
					c-2.024-0.745-4.361-0.587-4.234,1.94c0.095,1.889,1.532,2.54,3.098,2.437c-0.718,1.495-0.806,3.376,0.425,4.119
					C257.162,117.007,258.198,116.475,258.853,115.656z"/>
				<path style="fill:#FFF3DA;" d="M252.795,127.927c0.641,0.232,1.415,0.184,1.969-0.208c1.257-0.889,0.557-1.956-0.544-2.788
					c0.503-0.059,0.975-0.175,1.363-0.369c0.913-0.456,1.509-1.588,0.917-2.533c-0.492-0.787-1.41-0.968-2.428-0.815
					c0.005-0.025,0.014-0.049,0.019-0.074c0.127-0.684-0.101-1.545-0.872-1.713c-0.669-0.146-1.251,0.326-1.71,0.845
					c-0.401-0.651-1.024-1.167-1.795-1.189c-1.123-0.032-1.789,1.125-1.661,2.144c0.06,0.48,0.316,0.942,0.672,1.325
					c-1.815,0.081-3.579,0.965-2.657,2.886c0.69,1.437,2.018,1.474,3.201,0.884c-0.07,1.395,0.473,2.885,1.672,3.062
					C251.921,129.528,252.553,128.776,252.795,127.927z"/>
				<path style="fill:#568F8C;" d="M261.241,122.427c0.641,0.232,1.415,0.184,1.969-0.208c1.257-0.889,0.557-1.956-0.544-2.788
					c0.503-0.059,0.975-0.175,1.363-0.368c0.913-0.456,1.509-1.588,0.917-2.533c-0.492-0.787-1.41-0.968-2.428-0.815
					c0.005-0.025,0.014-0.049,0.019-0.074c0.127-0.684-0.101-1.545-0.872-1.713c-0.669-0.146-1.251,0.326-1.71,0.845
					c-0.401-0.651-1.024-1.167-1.795-1.189c-1.123-0.032-1.789,1.125-1.66,2.144c0.06,0.479,0.316,0.942,0.672,1.325
					c-1.815,0.081-3.579,0.965-2.657,2.886c0.69,1.437,2.018,1.474,3.201,0.884c-0.07,1.395,0.473,2.885,1.672,3.062
					C260.367,124.028,260.999,123.276,261.241,122.427z"/>
				<path style="fill:#4C807D;" d="M246.175,118.893c0.622-0.556,1.02-1.417,0.919-2.241c-0.228-1.869-1.783-1.735-3.319-1.032
					c0.228-0.576,0.378-1.152,0.394-1.682c0.038-1.248-0.834-2.546-2.196-2.458c-1.133,0.074-1.861,0.957-2.287,2.142
					c-0.024-0.02-0.045-0.043-0.069-0.063c-0.663-0.533-1.723-0.788-2.351-0.055c-0.545,0.636-0.375,1.537-0.083,2.332
					c-0.934,0.054-1.851,0.425-2.322,1.243c-0.687,1.19,0.173,2.579,1.345,3.033c0.551,0.213,1.198,0.206,1.817,0.046
					c-0.966,2.002-1.039,4.414,1.566,4.537c1.947,0.091,2.758-1.317,2.809-2.934c1.462,0.886,3.382,1.165,4.267-0.023
					C247.392,120.763,246.949,119.646,246.175,118.893z"/>
				<path style="fill:#FFF3DA;" d="M246.074,106.376c0.622-0.556,1.02-1.417,0.919-2.241c-0.228-1.869-1.783-1.735-3.319-1.032
					c0.228-0.576,0.378-1.152,0.394-1.682c0.038-1.248-0.834-2.547-2.196-2.458c-1.133,0.074-1.861,0.957-2.287,2.142
					c-0.024-0.02-0.045-0.043-0.069-0.063c-0.663-0.533-1.723-0.788-2.351-0.055c-0.545,0.636-0.375,1.537-0.083,2.332
					c-0.934,0.054-1.851,0.425-2.322,1.243c-0.687,1.19,0.173,2.579,1.345,3.033c0.551,0.213,1.198,0.206,1.817,0.046
					c-0.966,2.002-1.039,4.414,1.566,4.536c1.947,0.091,2.758-1.317,2.809-2.934c1.462,0.886,3.382,1.165,4.268-0.023
					C247.291,108.246,246.848,107.129,246.074,106.376z"/>
				<path style="fill:#568F8C;" d="M255.443,120.335c0.769-0.251,1.459-0.862,1.69-1.633c0.526-1.75-0.908-2.237-2.547-2.211
					c0.427-0.423,0.785-0.876,1.006-1.341c0.52-1.094,0.252-2.588-0.993-3.04c-1.035-0.376-2.027,0.124-2.868,1.012
					c-0.013-0.027-0.023-0.056-0.037-0.083c-0.381-0.732-1.224-1.372-2.068-0.965c-0.732,0.352-0.932,1.22-0.983,2.04
					c-0.851-0.316-1.81-0.344-2.548,0.199c-1.074,0.79-0.852,2.36,0.013,3.219c0.407,0.404,0.984,0.651,1.597,0.749
					c-1.639,1.402-2.644,3.518-0.377,4.642c1.695,0.84,2.964-0.095,3.64-1.512c0.954,1.357,2.551,2.353,3.801,1.643
					C255.795,122.471,255.837,121.306,255.443,120.335z"/>
			</g>
			<g>
				<path style="fill:#568F8C;" d="M403.476,193.44c-0.111,0.673-0.531,1.325-1.143,1.616c-1.39,0.662-1.978-0.47-2.167-1.838
					c-0.298,0.41-0.629,0.766-0.988,1.009c-0.844,0.573-2.123,0.54-2.658-0.438c-0.446-0.814-0.156-1.704,0.476-2.517
					c-0.025-0.008-0.049-0.012-0.074-0.02c-0.658-0.224-1.299-0.844-1.068-1.598c0.2-0.655,0.896-0.932,1.573-1.079
					c-0.372-0.668-0.518-1.463-0.16-2.147c0.521-0.995,1.856-1.011,2.682-0.401c0.389,0.287,0.667,0.736,0.828,1.234
					c0.958-1.544,2.591-2.651,3.817-0.907c0.916,1.304,0.3,2.48-0.793,3.224c1.252,0.621,2.286,1.823,1.854,2.955
					C405.299,193.46,404.335,193.644,403.476,193.44z"/>
				<path style="fill:#FFF3DA;" d="M394.188,191.648c-0.111,0.673-0.531,1.325-1.143,1.616c-1.389,0.662-1.978-0.47-2.167-1.838
					c-0.298,0.41-0.629,0.766-0.988,1.009c-0.844,0.573-2.123,0.54-2.658-0.438c-0.446-0.814-0.155-1.704,0.476-2.517
					c-0.025-0.008-0.049-0.012-0.074-0.02c-0.658-0.224-1.299-0.844-1.068-1.598c0.2-0.655,0.896-0.932,1.573-1.079
					c-0.372-0.668-0.518-1.463-0.16-2.147c0.521-0.995,1.856-1.011,2.682-0.401c0.389,0.287,0.668,0.736,0.828,1.234
					c0.958-1.544,2.591-2.651,3.817-0.907c0.916,1.304,0.3,2.48-0.793,3.224c1.252,0.621,2.286,1.823,1.854,2.955
					C396.011,191.668,395.047,191.852,394.188,191.648z"/>
				<path style="fill:#4C807D;" d="M393.279,186.897c-0.789,0.271-1.735,0.197-2.404-0.293c-1.519-1.112-0.642-2.403,0.722-3.4
					c-0.614-0.083-1.19-0.233-1.66-0.478c-1.107-0.576-1.814-1.972-1.071-3.117c0.618-0.952,1.744-1.156,2.987-0.949
					c-0.006-0.031-0.016-0.06-0.021-0.091c-0.141-0.839,0.155-1.888,1.101-2.078c0.821-0.165,1.524,0.424,2.075,1.068
					c0.504-0.788,1.275-1.407,2.219-1.419c1.374-0.017,2.166,1.412,1.988,2.655c-0.083,0.585-0.405,1.146-0.848,1.607
					c2.219,0.135,4.359,1.251,3.192,3.584c-0.872,1.744-2.497,1.762-3.933,1.017c0.058,1.708-0.637,3.52-2.106,3.711
					C394.315,188.873,393.558,187.941,393.279,186.897z"/>
				<path style="fill:#4C807D;" d="M386.89,195.921c-0.595,0.548-1.465,0.851-2.251,0.677c-1.784-0.396-1.507-1.885-0.684-3.303
					c-0.578,0.166-1.148,0.257-1.661,0.222c-1.209-0.081-2.381-1.045-2.167-2.352c0.178-1.087,1.099-1.707,2.284-2.007
					c-0.017-0.025-0.038-0.047-0.055-0.073c-0.453-0.69-0.599-1.738,0.168-2.276c0.665-0.467,1.52-0.217,2.26,0.14
					c0.14-0.897,0.585-1.747,1.419-2.126c1.214-0.551,2.475,0.411,2.802,1.584c0.154,0.553,0.087,1.176-0.127,1.759
					c2.025-0.745,4.361-0.587,4.234,1.94c-0.095,1.89-1.532,2.54-3.098,2.437c0.718,1.495,0.806,3.376-0.425,4.119
					C388.582,197.272,387.545,196.739,386.89,195.921z"/>
				<path style="fill:#FFF3DA;" d="M392.949,208.192c-0.641,0.232-1.415,0.184-1.969-0.207c-1.257-0.889-0.557-1.956,0.544-2.789
					c-0.503-0.059-0.975-0.175-1.363-0.368c-0.913-0.456-1.509-1.588-0.917-2.533c0.492-0.787,1.41-0.968,2.428-0.815
					c-0.005-0.025-0.014-0.049-0.019-0.074c-0.127-0.684,0.101-1.545,0.872-1.713c0.669-0.146,1.251,0.326,1.71,0.845
					c0.401-0.651,1.024-1.167,1.795-1.189c1.123-0.032,1.789,1.125,1.661,2.144c-0.06,0.479-0.316,0.942-0.672,1.325
					c1.815,0.081,3.579,0.965,2.657,2.887c-0.69,1.437-2.017,1.474-3.201,0.884c0.07,1.395-0.473,2.885-1.672,3.062
					C393.822,209.792,393.19,209.041,392.949,208.192z"/>
				<path style="fill:#568F8C;" d="M384.502,202.692c-0.641,0.232-1.415,0.184-1.969-0.208c-1.257-0.889-0.557-1.956,0.544-2.788
					c-0.503-0.059-0.975-0.175-1.363-0.369c-0.913-0.456-1.509-1.588-0.917-2.533c0.492-0.787,1.41-0.968,2.428-0.815
					c-0.005-0.025-0.014-0.049-0.019-0.074c-0.127-0.684,0.101-1.545,0.872-1.713c0.669-0.146,1.251,0.327,1.71,0.845
					c0.401-0.651,1.023-1.167,1.795-1.189c1.123-0.033,1.789,1.125,1.661,2.144c-0.06,0.48-0.316,0.942-0.672,1.325
					c1.815,0.081,3.579,0.965,2.657,2.886c-0.69,1.437-2.017,1.474-3.201,0.884c0.07,1.395-0.473,2.885-1.672,3.062
					C385.376,204.293,384.744,203.541,384.502,202.692z"/>
				<path style="fill:#4C807D;" d="M399.568,199.158c-0.622-0.556-1.02-1.417-0.919-2.241c0.228-1.869,1.783-1.735,3.319-1.032
					c-0.228-0.576-0.378-1.152-0.394-1.682c-0.038-1.248,0.834-2.546,2.196-2.458c1.133,0.074,1.861,0.957,2.288,2.142
					c0.024-0.02,0.044-0.044,0.069-0.063c0.663-0.533,1.723-0.788,2.351-0.055c0.545,0.636,0.375,1.537,0.082,2.332
					c0.934,0.054,1.851,0.425,2.322,1.243c0.687,1.19-0.173,2.579-1.345,3.033c-0.551,0.213-1.198,0.207-1.817,0.046
					c0.966,2.002,1.039,4.414-1.566,4.537c-1.947,0.091-2.758-1.317-2.809-2.934c-1.462,0.886-3.382,1.165-4.267-0.023
					C398.351,201.027,398.794,199.911,399.568,199.158z"/>
				<path style="fill:#FFF3DA;" d="M399.669,186.641c-0.622-0.555-1.02-1.417-0.919-2.241c0.228-1.869,1.783-1.735,3.319-1.032
					c-0.228-0.576-0.378-1.152-0.394-1.682c-0.038-1.248,0.834-2.547,2.196-2.458c1.133,0.073,1.861,0.957,2.287,2.142
					c0.024-0.02,0.045-0.043,0.069-0.063c0.663-0.533,1.723-0.788,2.351-0.055c0.545,0.636,0.375,1.537,0.083,2.332
					c0.934,0.054,1.851,0.425,2.322,1.243c0.687,1.19-0.173,2.579-1.345,3.033c-0.551,0.213-1.198,0.206-1.817,0.046
					c0.966,2.002,1.039,4.414-1.566,4.537c-1.947,0.091-2.758-1.317-2.809-2.934c-1.462,0.886-3.382,1.165-4.267-0.023
					C398.452,188.51,398.895,187.394,399.669,186.641z"/>
				<path style="fill:#568F8C;" d="M390.3,200.6c-0.769-0.251-1.458-0.862-1.69-1.633c-0.526-1.75,0.908-2.237,2.547-2.211
					c-0.427-0.423-0.785-0.876-1.006-1.341c-0.52-1.094-0.252-2.588,0.993-3.04c1.035-0.376,2.027,0.124,2.868,1.012
					c0.013-0.027,0.023-0.056,0.037-0.083c0.381-0.732,1.224-1.372,2.068-0.966c0.732,0.352,0.932,1.22,0.983,2.04
					c0.851-0.316,1.81-0.344,2.548,0.199c1.074,0.79,0.852,2.36-0.013,3.219c-0.407,0.404-0.984,0.651-1.597,0.749
					c1.639,1.402,2.644,3.518,0.377,4.642c-1.695,0.84-2.964-0.095-3.64-1.512c-0.954,1.357-2.551,2.354-3.801,1.643
					C389.948,202.736,389.906,201.571,390.3,200.6z"/>
			</g>
		</g>
		<path style="opacity:0.1;fill:#58325C;" d="M313.033,430.75c-37.364,0-69.323,2.815-82.339,6.796
			c-8.254-3.095-25.251-5.219-44.882-5.219c-27.727,0-50.205,4.237-50.205,9.463c0,5.226,22.477,9.463,50.205,9.463
			c20.258,0,37.711-2.262,45.645-5.518c13.472,3.861,44.923,6.57,81.575,6.57c48.922,0,88.581-4.825,88.581-10.777
			S361.955,430.75,313.033,430.75z"/>
		<g>
			<path style="fill:#4C807D;" d="M157.066,108.641c-1.919-0.508-4.173,0.119-5.963,1.007c-0.36-1.533-1.107-3.048-2.191-3.976
				c-0.852-0.729-1.893-0.918-2.98-0.742c-1.022,0.165-2.162,0.52-2.838,1.352c-1.413,1.74-0.486,4.699,0.309,6.504
				c0.508,1.154,1.162,2.236,1.869,3.278c0.747,1.101,1.536,2.271,2.525,3.169c0.08,0.073,0.178,0.096,0.27,0.084
				c0.056,0.116,0.181,0.202,0.35,0.174c2.44-0.418,4.898-1.259,7.133-2.329c1.797-0.86,3.604-2.216,3.974-4.296
				C159.854,111.009,158.969,109.144,157.066,108.641z"/>
			<path style="fill:#4C807D;" d="M80.437,155.136c-1.297-0.104-2.624,0.423-3.535,1.339c-0.214-0.512-0.549-0.97-1.022-1.327
				c-0.908-0.685-2.162-0.873-3.173-0.302c-2.393,1.35-0.921,4.514,0.352,6.127c0.843,1.069,1.967,1.997,3.133,2.693
				c0.071,0.043,0.148,0.028,0.205-0.014c0.023-0.003,0.047-0.009,0.072-0.021c1.377-0.675,2.743-1.417,3.918-2.413
				c1.047-0.887,2.101-2.095,2.183-3.531C82.644,156.38,81.754,155.242,80.437,155.136z"/>
			<path style="fill:#4C807D;" d="M206.08,95.206c-1.296-0.104-2.624,0.423-3.535,1.339c-0.214-0.512-0.549-0.97-1.022-1.327
				c-0.908-0.685-2.162-0.872-3.173-0.302c-2.393,1.35-0.921,4.514,0.352,6.127c0.843,1.069,1.966,1.997,3.133,2.692
				c0.072,0.043,0.148,0.028,0.205-0.014c0.023-0.003,0.048-0.009,0.072-0.021c1.377-0.675,2.743-1.417,3.918-2.413
				c1.047-0.887,2.101-2.095,2.183-3.531C208.288,96.45,207.398,95.311,206.08,95.206z"/>
			<path style="fill:#4C807D;" d="M80.577,139.509c-0.859-0.542-1.944-0.206-2.575,0.526c-0.54,0.626-0.87,1.468-1.071,2.315
				c-0.378-0.299-0.821-0.523-1.264-0.667c-0.92-0.299-1.853,0.005-2.432,0.776c-0.575,0.766-0.63,1.753-0.254,2.619
				c0.424,0.976,1.267,1.588,2.212,2.013c0.636,0.286,1.281,0.554,1.922,0.829c0.65,0.279,1.293,0.62,2.003,0.705
				c0.038,0.005,0.073-0.004,0.103-0.021c0.076,0.06,0.18,0.07,0.262-0.029c0.705-0.85,1.154-1.986,1.515-3.021
				c0.38-1.09,0.679-2.27,0.72-3.429C81.753,141.135,81.462,140.067,80.577,139.509z"/>
			<path style="fill:#4C807D;" d="M260.591,49.06c-0.91-1.419-2.779-1.678-4.245-1.02c-1.253,0.563-2.341,1.596-3.24,2.729
				c-0.358-0.715-0.867-1.365-1.432-1.893c-1.173-1.097-2.79-1.297-4.205-0.544c-1.404,0.747-2.181,2.194-2.224,3.761
				c-0.049,1.767,0.789,3.281,1.911,4.585c0.755,0.878,1.538,1.734,2.308,2.6c0.781,0.877,1.508,1.842,2.517,2.469
				c0.054,0.034,0.113,0.046,0.17,0.042c0.072,0.143,0.221,0.232,0.414,0.14c1.658-0.782,3.134-2.175,4.405-3.478
				c1.339-1.373,2.618-2.937,3.496-4.651C261.215,52.334,261.529,50.522,260.591,49.06z"/>
			<path style="fill:#4C807D;" d="M375.182,125.989c1.919-0.508,4.173,0.119,5.963,1.007c0.36-1.533,1.107-3.048,2.191-3.976
				c0.852-0.729,1.893-0.918,2.98-0.742c1.022,0.165,2.162,0.52,2.838,1.352c1.413,1.74,0.486,4.699-0.309,6.504
				c-0.508,1.154-1.162,2.236-1.869,3.278c-0.747,1.101-1.536,2.271-2.525,3.169c-0.08,0.073-0.178,0.096-0.27,0.085
				c-0.056,0.116-0.181,0.202-0.35,0.173c-2.441-0.418-4.898-1.259-7.133-2.329c-1.797-0.86-3.604-2.216-3.975-4.296
				C372.395,128.358,373.279,126.493,375.182,125.989z"/>
			<path style="fill:#4C807D;" d="M413.435,148.302c1.297-0.104,2.624,0.423,3.535,1.339c0.214-0.512,0.549-0.97,1.022-1.327
				c0.908-0.685,2.162-0.872,3.173-0.302c2.393,1.35,0.921,4.514-0.352,6.127c-0.843,1.069-1.966,1.997-3.133,2.692
				c-0.072,0.043-0.148,0.028-0.205-0.014c-0.023-0.003-0.047-0.009-0.072-0.021c-1.377-0.675-2.743-1.417-3.918-2.413
				c-1.047-0.887-2.1-2.095-2.183-3.531C411.228,149.546,412.118,148.407,413.435,148.302z"/>
			<path style="fill:#4C807D;" d="M257.827,74.703c1.297-0.104,2.624,0.423,3.535,1.339c0.214-0.512,0.549-0.97,1.022-1.327
				c0.908-0.685,2.162-0.872,3.173-0.302c2.393,1.35,0.921,4.514-0.352,6.127c-0.843,1.069-1.966,1.997-3.133,2.692
				c-0.072,0.043-0.148,0.028-0.205-0.014c-0.023-0.003-0.047-0.009-0.072-0.021c-1.377-0.675-2.743-1.417-3.918-2.413
				c-1.047-0.887-2.1-2.095-2.184-3.531C255.619,75.947,256.509,74.809,257.827,74.703z"/>
			<path style="fill:#4C807D;" d="M332.147,86.869c2.053-0.164,4.155,0.67,5.599,2.121c0.339-0.811,0.869-1.536,1.619-2.102
				c1.438-1.085,3.424-1.382,5.026-0.478c3.79,2.139,1.458,7.149-0.557,9.704c-1.335,1.692-3.115,3.163-4.961,4.264
				c-0.113,0.068-0.235,0.045-0.325-0.022c-0.037-0.005-0.075-0.015-0.114-0.034c-2.181-1.07-4.344-2.243-6.205-3.821
				c-1.658-1.405-3.327-3.318-3.458-5.593C328.651,88.839,330.06,87.036,332.147,86.869z"/>
			<path style="fill:#4C807D;" d="M50.895,169.404c2.054-0.164,4.156,0.67,5.599,2.121c0.339-0.811,0.869-1.536,1.619-2.102
				c1.438-1.085,3.424-1.382,5.026-0.478c3.79,2.139,1.458,7.149-0.557,9.704c-1.335,1.693-3.115,3.163-4.962,4.264
				c-0.113,0.068-0.235,0.045-0.325-0.022c-0.037-0.005-0.075-0.015-0.114-0.034c-2.181-1.069-4.344-2.243-6.205-3.821
				c-1.658-1.405-3.327-3.318-3.458-5.593C47.398,171.374,48.808,169.571,50.895,169.404z"/>
			<path style="fill:#4C807D;" d="M386.484,147.92c0.859-0.542,1.944-0.206,2.575,0.526c0.54,0.627,0.87,1.468,1.071,2.315
				c0.378-0.299,0.821-0.523,1.264-0.667c0.92-0.299,1.853,0.005,2.432,0.776c0.575,0.766,0.63,1.753,0.254,2.619
				c-0.424,0.976-1.267,1.588-2.212,2.013c-0.636,0.286-1.281,0.553-1.922,0.829c-0.65,0.279-1.293,0.62-2.003,0.705
				c-0.038,0.005-0.073-0.004-0.103-0.021c-0.076,0.06-0.18,0.07-0.262-0.029c-0.705-0.85-1.154-1.986-1.515-3.021
				c-0.38-1.09-0.679-2.27-0.72-3.429C385.308,149.546,385.599,148.478,386.484,147.92z"/>
			<path style="fill:#4C807D;" d="M269.251,61.705c0.859-0.542,1.944-0.206,2.575,0.526c0.54,0.627,0.87,1.468,1.071,2.315
				c0.378-0.299,0.821-0.523,1.264-0.667c0.92-0.299,1.853,0.004,2.432,0.776c0.575,0.766,0.63,1.753,0.254,2.619
				c-0.424,0.976-1.267,1.588-2.212,2.013c-0.636,0.286-1.281,0.553-1.922,0.829c-0.65,0.279-1.293,0.62-2.003,0.705
				c-0.038,0.005-0.073-0.004-0.103-0.021c-0.076,0.06-0.18,0.07-0.262-0.029c-0.705-0.85-1.154-1.986-1.515-3.021
				c-0.38-1.09-0.679-2.27-0.72-3.429C268.076,63.331,268.367,62.263,269.251,61.705z"/>
			<path style="fill:#4C807D;" d="M180.728,76.824c2.878-0.762,6.257,0.179,8.941,1.509c0.539-2.298,1.66-4.571,3.286-5.962
				c1.277-1.093,2.839-1.376,4.469-1.112c1.533,0.248,3.242,0.779,4.256,2.028c2.118,2.609,0.729,7.045-0.463,9.752
				c-0.762,1.73-1.742,3.353-2.802,4.915c-1.12,1.651-2.304,3.405-3.787,4.753c-0.12,0.109-0.266,0.144-0.404,0.127
				c-0.084,0.174-0.272,0.304-0.525,0.26c-3.659-0.627-7.345-1.889-10.696-3.492c-2.695-1.289-5.404-3.324-5.96-6.442
				C176.548,80.376,177.875,77.579,180.728,76.824z"/>
			<path style="fill:#4C807D;" d="M430.438,174.605c2.878-0.762,6.257,0.179,8.941,1.51c0.539-2.298,1.66-4.571,3.286-5.962
				c1.278-1.093,2.839-1.376,4.469-1.112c1.533,0.248,3.242,0.779,4.256,2.027c2.118,2.609,0.729,7.045-0.463,9.752
				c-0.762,1.73-1.742,3.353-2.802,4.915c-1.12,1.651-2.304,3.405-3.787,4.753c-0.12,0.109-0.266,0.144-0.404,0.127
				c-0.084,0.174-0.272,0.303-0.525,0.26c-3.659-0.627-7.345-1.889-10.696-3.492c-2.695-1.289-5.404-3.324-5.96-6.443
				C426.258,178.157,427.585,175.36,430.438,174.605z"/>
			<path style="fill:#4C807D;" d="M310.701,93.938c1.287-0.813,2.915-0.309,3.862,0.789c0.81,0.939,1.304,2.201,1.606,3.472
				c0.566-0.448,1.231-0.785,1.896-1.001c1.379-0.449,2.778,0.007,3.647,1.163c0.862,1.148,0.945,2.629,0.38,3.927
				c-0.636,1.463-1.9,2.382-3.317,3.019c-0.954,0.43-1.921,0.83-2.882,1.243c-0.974,0.419-1.938,0.93-3.003,1.057
				c-0.057,0.007-0.109-0.006-0.155-0.031c-0.113,0.09-0.269,0.105-0.393-0.044c-1.056-1.274-1.731-2.978-2.272-4.529
				c-0.57-1.635-1.018-3.403-1.079-5.141C308.939,96.377,309.375,94.775,310.701,93.938z"/>
		</g>
		<g>
			<g>
				<path style="fill:#443D4D;" d="M307.093,207.797c0.637-2.14,1.443-4.221,2.302-6.28c1.666-3.99,4.864-2.628,8.69-2.988
					c8.927-0.841,16.392,2.536,20.655,10.795c0.542,1.05,1.012,2.159,1.786,3.053c1.476,1.705,3.705,2.387,5.501,3.662
					c0.918,0.652,3.473,2.632,1.315,3.485c-0.783,0.309-1.699,0.436-2.517,0.645l1.638,2.654c0.17,0.275,0.344,0.564,0.367,0.886
					c0.054,0.78-0.845,1.349-1.621,1.261c-0.777-0.088-1.424-0.611-2.024-1.113c-0.039,4.137-1.909,8.135-4.701,11.188
					c-2.792,3.053-6.452,5.217-10.31,6.708c-4.236,1.637-9.623,2.273-12.812-0.96c-2.74-2.777-2.664-7.165-3.733-10.917
					c-1.064-3.733-3.443-7.077-6.621-9.305c-0.281-0.197-0.57-0.381-0.861-0.56C305.03,215.917,305.896,211.816,307.093,207.797z"/>
				<path style="fill:#443D4D;" d="M307.093,207.797c0.637-2.14,1.443-4.221,2.302-6.28c1.666-3.99,4.864-2.628,8.69-2.988
					c8.927-0.841,16.392,2.536,20.655,10.795c0.542,1.05,1.012,2.159,1.786,3.053c1.476,1.705,3.705,2.387,5.501,3.662
					c0.918,0.652,3.473,2.632,1.315,3.485c-0.783,0.309-1.699,0.436-2.517,0.645l1.638,2.654c0.17,0.275,0.344,0.564,0.367,0.886
					c0.054,0.78-0.845,1.349-1.621,1.261c-0.777-0.088-1.424-0.611-2.024-1.113c-0.039,4.137-1.909,8.135-4.701,11.188
					c-2.792,3.053-6.452,5.217-10.31,6.708c-4.236,1.637-9.623,2.273-12.812-0.96c-2.74-2.777-2.664-7.165-3.733-10.917
					c-1.064-3.733-3.443-7.077-6.621-9.305c-0.281-0.197-0.57-0.381-0.861-0.56C305.03,215.917,305.896,211.816,307.093,207.797z"/>
				<path style="fill:#443D4D;" d="M307.093,207.797c0.637-2.14,1.443-4.221,2.302-6.28c1.666-3.99,4.864-2.628,8.69-2.988
					c8.927-0.841,16.392,2.536,20.655,10.795c0.542,1.05,1.012,2.159,1.786,3.053c1.476,1.705,3.705,2.387,5.501,3.662
					c0.918,0.652,3.473,2.632,1.315,3.485c-0.783,0.309-1.699,0.436-2.517,0.645l1.638,2.654c0.17,0.275,0.344,0.564,0.367,0.886
					c0.054,0.78-0.845,1.349-1.621,1.261c-0.777-0.088-1.424-0.611-2.024-1.113c-0.039,4.137-1.909,8.135-4.701,11.188
					c-2.792,3.053-6.452,5.217-10.31,6.708c-4.236,1.637-9.623,2.273-12.812-0.96c-2.74-2.777-2.664-7.165-3.733-10.917
					c-1.064-3.733-3.443-7.077-6.621-9.305c-0.281-0.197-0.57-0.381-0.861-0.56C305.03,215.917,305.896,211.816,307.093,207.797z"/>
				<path style="opacity:0.1;fill:#58325C;" d="M346.027,216.04c-1.795-1.275-4.025-1.957-5.501-3.662
					c-0.438-0.506-0.776-1.083-1.087-1.676c-1.214,5.175-3.365,9.965-7.375,13.195c-4.516,3.639-10.795,3.815-16.195,2.31
					c-4.564-1.272-8.527-4.144-11.359-7.878c-0.121,0.562-0.242,1.123-0.363,1.685c0.291,0.179,0.579,0.363,0.86,0.56
					c3.178,2.228,5.557,5.572,6.621,9.305c1.069,3.752,0.993,8.139,3.733,10.917c3.189,3.232,8.576,2.596,12.812,0.96
					c3.859-1.491,7.518-3.655,10.31-6.708c2.792-3.053,4.662-7.051,4.701-11.188c0.6,0.502,1.247,1.025,2.024,1.113
					c0.777,0.088,1.676-0.482,1.621-1.261c-0.023-0.322-0.197-0.611-0.367-0.886l-1.638-2.654c0.817-0.209,1.733-0.336,2.517-0.645
					C349.499,218.672,346.945,216.691,346.027,216.04z"/>
				<path style="opacity:0.3;fill:#FFFFFF;" d="M320.092,203.002c0.379-0.154,0.56,0.419,0.263,0.624
					c-1.364,0.941-2.401,2.259-2.989,3.817c-0.118,0.312-0.69,0.305-0.638-0.086C316.991,205.373,318.229,203.759,320.092,203.002z"
					/>
				<path style="opacity:0.3;fill:#FFFFFF;" d="M315.978,202.196c0.223-0.266,0.637,0.075,0.471,0.364
					c-0.719,1.249-0.813,2.517-0.576,3.913c0.056,0.329-0.414,0.6-0.586,0.247C314.555,205.213,314.933,203.444,315.978,202.196z"/>
				<path style="opacity:0.3;fill:#FFFFFF;" d="M318.575,207.512c0.259-1.201,1.79-1.838,2.889-1.46
					c0.33,0.113,0.304,0.675-0.087,0.646c-1.01-0.076-1.67,0.364-2.311,1.1C318.861,208.034,318.517,207.778,318.575,207.512z"/>
				<path style="opacity:0.3;fill:#FFFFFF;" d="M337.866,230.773c2.1-1.821,3.249-4.138,3.068-6.95
					c-0.022-0.334,0.548-0.42,0.593-0.08c0.387,2.872-0.799,5.923-3.273,7.534C337.953,231.472,337.589,231.013,337.866,230.773z"/>
				<path style="opacity:0.3;fill:#FFFFFF;" d="M332.947,204.891c2.067,1.16,3.457,2.542,4.459,4.701
					c1.186,2.557,2.123,5.499,5.289,6.067c0.351,0.063,0.27,0.637-0.084,0.622c-1.978-0.086-3.428-1.443-4.407-3.081
					c-0.661-1.106-1.077-2.335-1.652-3.484c-0.947-1.893-2.252-3-3.934-4.26C332.289,205.209,332.57,204.679,332.947,204.891z"/>
				<path style="fill:#995B3F;" d="M333.279,229.947c-1.681,0.23-3.256,2.123-3.045,3.835c0.037,0.3,0.49,0.306,0.577,0.036
					c0.226-0.697,0.415-1.345,0.884-1.929c0.043-0.054,0.094-0.095,0.14-0.145c0.407,0.564,0.609,1.176,0.551,1.884
					c-0.029,0.35,0.505,0.464,0.611,0.122c0.272-0.874,0.025-1.847-0.648-2.461c0.36-0.259,0.757-0.464,1.171-0.654
					C333.915,230.454,333.676,229.892,333.279,229.947z"/>
				<path style="fill:#E09463;" d="M335.928,348.708c-0.61-3.284-1.387-6.592-2.477-9.75c-1.237-3.586-3.389-7.678-6.903-8.996
					c-3.428-1.286-7.896,1.104-11.234,2.104c-8.471,2.538-16.859,5.361-25.151,8.463c-6.904,2.583-13.911,4.907-20.693,7.809
					c-5.204,2.226-10.05,5.162-15.069,7.76c-5.181,2.681-6.352,5.172-6.422,11.093c-0.045,3.767,0.731,7.515,1.707,11.078
					c2.237,8.164,5.316,16.065,8.546,23.88c1.657,4.011,3.365,8.001,5.029,12.01c2.143,5.159,4.08,7.807-0.749,11.989
					c-1.161,1.006-2.429,1.86-3.763,2.607c2.551,1.75,5.461,2.883,8.761,3.694c3.461,0.851,6.982,1.284,10.518,1.602
					c0.219-0.61,0.411-1.251,0.572-1.931c1.576-6.684-1.112-13.438-1.387-20.123c-0.292-7.125,0.408-14.259-0.256-21.375
					c-0.596-6.398-1.949-12.892-4.755-18.588c3.293,0.158,6.586-0.153,9.907-0.467c9.065-0.857,18.091-2.744,27.081-4.236
					c7.083-1.176,14.241-1.897,21.251-3.468c3.017-0.676,5.935-1.817,6.556-5.54C337.524,355.177,336.506,351.824,335.928,348.708z"
					/>
				<path style="fill:#3D3640;" d="M274.191,423.462c-2.946,0.597-6.453,0.439-8.902-1.008c-0.372,1.162-1.222,2.348-2.775,3.693
					c-1.161,1.006-2.429,1.86-3.763,2.607c2.551,1.75,5.461,2.883,8.761,3.694c3.461,0.851,6.982,1.284,10.518,1.602
					c0.219-0.61,0.411-1.251,0.572-1.931c0.781-3.315,0.513-6.647,0.012-9.979C277.138,422.727,275.632,423.17,274.191,423.462z"/>
				<path style="fill:#EB9B67;" d="M388.322,414.068c0.399-0.673,0.817-1.34,1.145-2.049c1.021-2.204,1.959-4.625,2.38-7.027
					c0.561-3.207,0.265-6.518,0.466-9.764c-0.995-0.281-2.074-0.452-3.235-0.532c-2.269-0.155-5.104-0.621-7.255,0.346
					c-2.257,1.015-3.841,3.053-6.028,4.173c-2.005,1.026-4.537,1.477-6.71,2.034c-5.282,1.353-10.689,2.238-15.867,3.98
					c-2.92,0.983-5.821,2.141-8.591,3.524c0.037-0.364,0.073-0.728,0.11-1.092c0.906-9.061,0.794-18.281,1.062-27.39
					c0.212-7.177,0.883-14.34,0.693-21.521c-0.082-3.091-0.639-6.173-4.173-7.501c-2.985-1.121-6.471-0.768-9.641-0.801
					c-3.34-0.035-6.735,0.091-10.044,0.551c-3.757,0.522-8.187,1.846-10.158,5.04c-1.923,3.116-0.438,7.961-0.1,11.428
					c0.858,8.801,2.011,17.576,3.458,26.31c1.844,11.134,3.1,22.728,6.869,33.485c0.392,1.118,1.399,4.773,2.848,7.497
					c0.221,1.639,0.941,3.069,2.487,3.952c2.475,1.413,6.379,0.695,9.03,0.103c3.677-0.821,7.146-2.437,10.39-4.205
					c12.749-6.951,24.409-16.278,36.221-24.601C385.435,411.085,386.965,412.482,388.322,414.068z"/>
				<path style="fill:#3D3640;" d="M389.078,394.697c-2.269-0.155-5.104-0.621-7.255,0.346c-0.676,0.304-1.288,0.704-1.877,1.139
					c2.288,3.96,3.043,9.079,3.025,13.354c-0.001,0.332-0.01,0.66-0.02,0.988c0.242-0.172,0.485-0.345,0.727-0.516
					c1.757,1.076,3.287,2.473,4.644,4.06c0.399-0.673,0.817-1.34,1.145-2.049c1.021-2.204,1.959-4.625,2.38-7.027
					c0.561-3.207,0.265-6.518,0.466-9.764C391.318,394.948,390.239,394.777,389.078,394.697z"/>
				<path style="fill:#E09463;" d="M344.609,259.178c-4.231-1.574-8.591-2.911-13.04-4.002c-0.37-0.091-0.744-0.17-1.115-0.257
					c-0.27-0.599-0.721-1.199-1.407-1.79c-0.905-0.779-1.746-1.598-2.555-2.446c-2.031-3.298-3.142-7.118-3.606-10.975
					c-0.045-0.376-0.091-0.752-0.138-1.127c-0.143-1.309,0.126-3.021-0.99-3.967c-2.123-1.8-8.991-1.465-9.565,1.84
					c-0.47,2.709,0.009,5.619-0.18,8.357c-0.156,2.249-0.695,4.399-2.102,6.163c-0.241,0.302-0.509,0.588-0.789,0.867
					c-1.463-0.082-2.927-0.147-4.393-0.176c-4.252-0.085-8.605,0.513-12.869,0.617c-11.38,0.277-22.893,0.579-33.912,3.162
					c-0.093-0.636-0.19-1.225-0.278-1.735c-2-11.528-7.657-20.881-16.32-28.482c-0.399-0.35-0.773-0.648-1.127-0.908
					c0.208-0.29,0.406-0.591,0.577-0.914c1.029-1.936,1.196-4.128,1.636-6.24c0.485-2.327,1.724-4.316,1.869-6.724
					c0.114-1.907-2.668,0.049-3.092,0.588c-0.587,0.747-1.604,2.277-1.361,3.271c-0.521-0.967-1.324-1.69-1.858-2.648
					c-1.245-2.234-2.257-4.636-3.597-6.805c-0.827-1.34-2.298-4.103-4.154-3.527c-0.383,0.119-0.566,0.421-0.622,0.812
					c-0.112,0.783,0.395,1.484,0.718,2.155c0.604,1.253,1.191,2.512,1.736,3.794c0.497,1.168,0.89,2.447,1.307,3.717
					c-0.228,0.097-0.451,0.208-0.668,0.331c-1.21-1.903-2.675-3.719-4.129-5.325c-0.985-1.088-2.764-3.201-4.371-2.301
					c-0.198,0.111-0.34,0.344-0.337,0.577c0.013,0.956,0.722,1.661,1.217,2.423c0.801,1.235,1.578,2.487,2.339,3.749
					c0.434,0.72,0.85,1.45,1.258,2.185c-0.577-0.47-7.492-5.344-7.388-3.167c0.095,1.912,2.175,3.046,3.45,4.181
					c1.28,1.139,2.534,2.395,3.871,3.516c-0.013,0.062-0.021,0.124-0.033,0.185c-2.364-1.553-5.259-2.8-7.823-2.402
					c-0.528,0.082-0.724,0.88-0.352,1.233c1.704,1.615,4.017,2.198,6.034,3.319c0.659,0.366,1.465,0.646,1.995,1.211
					c0.497,0.531,0.738,1.315,1.178,1.906c0.508,0.683,1.115,1.29,1.779,1.811c1.042,0.817,2.318,1.497,3.652,1.643
					c-0.466,5.65,2.119,15.896,3.014,18.525c2.295,6.735,5.714,12.943,8.767,19.327c1.249,2.612,3.517,3.706,6.162,4.513
					c9.177,2.799,18.817,3.401,28.318,3.764c1.951,0.075,4.189,0.345,6.475,0.505c-0.011,0.296-0.021,0.591-0.026,0.887
					c-0.144,9.737,3.199,19.036,4.667,28.564c1.461,9.493-0.424,19.369-2.219,28.913c-0.452,2.402-0.898,4.783-1.283,7.131
					c-0.898,5.476,7.219,5.298,10.943,6.186c4.198,1,7.064,0.667,10.638-1.264c9.694-5.239,19.476-8.715,31.464-7.933
					c4.837,0.315,1.401-5.446,0.463-8.526c-1.934-6.348-4.936-12.671-5.465-19.346c-1.038-13.088,8.379-28.262,15.72-38.431
					c0.837-1.159,1.727-2.37,1.908-3.788C355.125,261.797,347.437,260.231,344.609,259.178z"/>
				<path style="opacity:0.1;fill:#58325C;" d="M312.013,244.812c-0.049,0.705-0.142,1.398-0.281,2.075
					c2.772,1.6,6.366,2.104,9.174,1.127c1.254-0.436,2.379-1.145,3.402-2.014c-0.701-2.032-1.165-4.153-1.423-6.29
					c-0.045-0.376-0.091-0.752-0.138-1.127c-0.143-1.309,0.126-3.021-0.99-3.967c-2.123-1.8-8.991-1.465-9.565,1.84
					C311.723,239.164,312.202,242.074,312.013,244.812z"/>
				<path style="fill:#FFF3DA;" d="M344.609,259.178c-4.231-1.574-8.591-2.911-13.04-4.002c-0.37-0.091-0.744-0.17-1.115-0.257
					c-0.27-0.599-0.721-1.199-1.407-1.79c-0.905-0.779-1.746-1.598-2.555-2.446c-0.613-0.996-1.133-2.044-1.586-3.122
					c-0.996,0.436-1.979,0.83-2.92,1.177c-2.96,1.092-6.329,1.798-9.372,0.627c-0.481-0.185-0.947-0.437-1.382-0.742
					c-0.319,0.834-0.744,1.626-1.321,2.35c-0.241,0.302-0.509,0.588-0.789,0.867c-1.463-0.082-2.927-0.147-4.393-0.176
					c-1.763-0.035-3.544,0.049-5.328,0.165c-1.161,1.984-2.618,3.873-3.602,5.468c-2.564,4.157-4.228,8.773-5.271,13.536
					c-1.047,4.779-1.387,9.631-1.714,14.485c1.074,5.898,2.707,11.725,3.618,17.64c1.461,9.493-0.424,19.369-2.219,28.913
					c-0.452,2.402-0.898,4.783-1.283,7.131c-0.898,5.476,7.219,5.298,10.943,6.186c4.198,1,7.064,0.667,10.638-1.264
					c9.694-5.239,19.476-8.715,31.464-7.933c4.837,0.315,1.401-5.446,0.463-8.526c-1.934-6.348-4.936-12.671-5.465-19.346
					c-1.038-13.088,8.379-28.262,15.72-38.431c0.837-1.159,1.727-2.37,1.908-3.788C355.125,261.797,347.437,260.231,344.609,259.178
					z"/>
				<path style="opacity:0.1;fill:#58325C;" d="M301.689,345.546c0.437-0.693,0.841-1.409,1.138-2.201
					c0.925-2.467,1.101-5.127,1.123-7.736c0.045-5.389-0.354-10.617,0.41-15.98c0.602-4.228,1.178-9.361,4.658-12.301
					c1.897-1.603,4.26-2.364,6.665-1.518c1.885,0.663,3.216,2.219,4.954,3.14c0.011,0.006,0.027,0.011,0.039,0.017
					c-1.291-2.347-2.893-4.565-4.437-6.734c-1.597-2.243-3.474-4.44-4.561-6.987c-1.972-4.625-0.359-9.938-2.996-14.363
					c-1.17-1.964-2.406-3.737-2.8-6.045c-0.454-2.658,0.041-5.487,0.513-8.112c0.611-3.388,1.596-6.686,2.473-10.01
					c0.56-2.12,0.998-4.291,1.526-6.427c-0.15,0.234-0.308,0.464-0.485,0.686c-0.241,0.302-0.509,0.588-0.789,0.867
					c-1.463-0.082-2.927-0.147-4.393-0.176c-1.763-0.035-3.544,0.049-5.328,0.165c-1.161,1.984-2.618,3.873-3.602,5.468
					c-2.564,4.157-4.228,8.773-5.271,13.536c-1.047,4.779-1.387,9.631-1.714,14.485c1.074,5.898,2.707,11.725,3.618,17.64
					c1.461,9.493-0.424,19.369-2.219,28.913c-0.452,2.402-0.898,4.783-1.283,7.131c-0.898,5.476,7.219,5.298,10.943,6.186
					C300.507,345.34,301.108,345.457,301.689,345.546z"/>
				<path style="fill:#EB9B67;" d="M332.2,226.581c-0.561-0.092-1.118-0.038-1.63,0.131c0.754-0.249-0.501-4.505-0.822-4.956
					c-2.385-3.343-4.901-5.601-8.876-6.818c-3.18-0.974-5.837-2.064-6.737-5.032c-2.537,0.983-4.835,2.29-6.353,3.766
					c-2.38,2.314-4.068,5.359-5.002,8.524c-0.09,0.472-0.176,0.939-0.256,1.39c-0.579,3.272-0.907,6.686-0.639,10.005
					c0.47,5.838,3.723,10.541,9.799,11.269c6.176,0.74,12.01-2.872,16.29-7.109c0.598,0.12,1.208,0.169,1.811,0.129
					c2.939-0.195,5.28-2.629,5.875-5.438C336.196,229.911,334.97,227.036,332.2,226.581z"/>
				<path style="opacity:0.1;fill:#58325C;" d="M334.827,228.197c-0.133,0.624-0.316,1.252-0.562,1.882
					c-0.914,2.349-2.664,4.263-5.166,4.902c-1.519,0.387-2.873,0.276-4.205,1.249c-1.011,0.738-1.828,1.718-2.727,2.583
					c-3.562,3.426-8.301,4.967-13.215,4.387c-1.124-0.133-2.141-0.412-3.057-0.818c1.509,1.311,3.435,2.196,5.79,2.478
					c6.176,0.74,12.01-2.872,16.29-7.109c0.598,0.12,1.208,0.169,1.811,0.129c2.939-0.195,5.28-2.629,5.875-5.438
					C335.974,230.958,335.679,229.361,334.827,228.197z"/>
				<path style="fill:#4C807D;" d="M305.253,348.356c-2.468-1.831-5.139-3.385-7.959-4.607c-2.4-1.04-5.253-2.286-7.928-2.294
					c-0.094-0.108-0.238-0.175-0.426-0.135c-8.025,1.711-15.884,4.947-23.283,8.445c-3.859,1.824-7.633,3.825-11.308,5.995
					c-2.684,1.584-6.007,3.164-7.31,6.196c-1.212,2.819-0.674,6.068-0.172,8.984c0.744,4.319,1.895,8.548,3.281,12.703
					c2.811,8.431,6.452,16.591,9.87,24.787c1.039,2.491,2.078,4.982,3.117,7.473c0.61,1.463,1.066,3.616,2.169,4.8
					c1.055,1.132,2.883,0.764,4.278,0.72c2.715-0.085,5.425-0.262,8.132-0.492c3.207-0.276,1.296-16.233,1.19-18.19
					c-0.28-5.172-0.95-10.323-2.008-15.392c-0.529-2.536-1.156-5.051-1.879-7.538c-0.274-0.943-1.62-7.17-2.46-7.379
					c5.826,1.449,12.94,0.221,18.215-0.465c6.417-0.835,13.628-2.25,19.119-5.841c2.64-1.726,3.833-3.604,4.045-5.51
					C314.428,356.154,309.547,351.542,305.253,348.356z"/>
				<path style="opacity:0.1;fill:#58325C;" d="M305.253,348.356c-2.468-1.831-5.139-3.385-7.96-4.607
					c-1.253-0.543-2.629-1.138-4.039-1.588c3.544,4.259,5.223,9.373,4.3,14.948c-0.933,5.637-5.246,9.396-10.578,10.908
					c-6.521,1.848-13.173-1.122-19.614-0.024c1.253,3.469,3.712,6.474,4.786,10.055c1.507,5.022,2.605,10.167,3.383,15.351
					c1.346,8.968,2.108,19.191-1.413,27.799c1.198-0.077,2.396-0.166,3.593-0.268c3.207-0.276,1.296-16.233,1.19-18.19
					c-0.28-5.172-0.95-10.323-2.008-15.392c-0.529-2.536-1.156-5.051-1.879-7.538c-0.274-0.943-1.62-7.17-2.46-7.379
					c5.827,1.449,12.94,0.221,18.215-0.465c6.417-0.835,13.628-2.25,19.119-5.841c2.64-1.726,3.833-3.604,4.045-5.51
					C314.428,356.154,309.547,351.542,305.253,348.356z"/>
				<path style="fill:#568F8C;" d="M380.472,406.07c-0.66-2.18-1.681-7.16-3.861-8.47c-1.082-0.65-2.623-0.357-3.798-0.275
					c-1.915,0.135-3.824,0.364-5.718,0.674c-4.092,0.669-8.116,1.751-11.995,3.215c-3.099,1.17-6.08,2.577-8.928,4.205
					c0.056-2.1,0.129-4.199,0.247-6.296c0.452-8.04,1.187-16.056,2.156-24.049c0.837-6.909,1.737-13.92,0.782-20.867
					c-0.466-3.394-1.468-6.565-2.856-9.685c-1.238-2.786-2.308-5.55-3.244-8.397c-0.62-2.455-1.267-4.903-1.909-7.355
					c-0.089-0.34-0.463-0.546-0.799-0.454c-15.787,4.352-31.622,2.311-46.439-4.14c-0.643-0.619-1.445-1.049-2.118-0.635
					c-0.54,0.332-0.53,1.071-0.593,1.624c-0.054,0.472-0.109,0.945-0.162,1.418c-1.049,5.265-2.455,10.44-4.281,15.496
					c-0.069,0.192,0.042,0.504,0.239,0.588c15.854,6.728,20.862,26.177,25.034,41.245c4.54,16.397,4.73,33.805,11.921,49.43
					c1.177,2.558,2.342,5.685,5.332,6.501c2.956,0.807,6.691-0.174,9.554-0.991c7.349-2.097,13.845-6.373,20.088-10.649
					c3.656-2.505,7.299-5.03,10.947-7.546c3.396-2.343,7.476-4.46,10.488-7.271C382.647,411.438,381.181,408.416,380.472,406.07z"/>
				<path style="opacity:0.1;fill:#58325C;" d="M297.585,350.26c1.69-0.684,3.282-1.873,4.3-2.903
					c2.372-2.397,3.341-5.847,3.546-9.13c0.214-3.433-0.146-6.795-0.355-10.158c-3.705-1.018-7.366-2.323-10.966-3.891
					c-0.643-0.619-1.445-1.049-2.118-0.635c-0.54,0.332-0.53,1.071-0.593,1.624c-0.054,0.472-0.109,0.945-0.162,1.418
					c-1.049,5.265-2.455,10.44-4.281,15.496c-0.069,0.192,0.042,0.504,0.239,0.588C291.342,344.428,294.742,347.065,297.585,350.26z
					"/>
				<path style="opacity:0.1;fill:#58325C;" d="M317.827,348.196c0.907,5.991,3.006,12.069,7.257,16.535
					c2.329,2.446,4.883,3.907,8.04,5.012c2.673,0.935,5.182,2.087,6.691,4.615c3.83,6.413,1.29,14.802,0.86,21.71
					c-0.344,5.52-0.693,12.551,2.009,17.697c1.902-1.291,3.05-3.551,4.285-5.466c1.132-1.755,2.299-3.487,3.564-5.148
					c-1.486,0.7-2.94,1.458-4.362,2.27c0.056-2.1,0.129-4.199,0.247-6.296c0.452-8.04,1.187-16.056,2.156-24.049
					c0.837-6.909,1.737-13.92,0.782-20.867c-0.466-3.394-1.468-6.564-2.856-9.685c-1.238-2.785-2.308-5.55-3.244-8.396
					c-0.62-2.455-1.267-4.903-1.908-7.355c-0.089-0.339-0.464-0.546-0.799-0.454c-7.224,1.991-14.457,2.642-21.599,2.146
					C317.304,336.215,316.925,342.238,317.827,348.196z"/>
				<path style="opacity:0.1;fill:#58325C;" d="M380.471,406.07c-0.416-1.374-0.975-3.858-1.878-5.836
					c-0.13,0.76-0.286,1.524-0.479,2.296c-1.09,4.342-3.124,8.35-5.924,11.837c-5.1,6.35-12.541,10.777-19.494,14.837
					c-6.458,3.771-15.169,8.31-22.874,6.032c-2.532-0.748-4.734-2.208-6.629-4.09c0.306,0.736,0.621,1.469,0.956,2.197
					c1.177,2.558,2.342,5.685,5.332,6.501c2.956,0.807,6.691-0.174,9.554-0.991c7.349-2.097,13.845-6.373,20.088-10.649
					c3.656-2.505,7.299-5.03,10.947-7.546c3.396-2.343,7.476-4.46,10.488-7.271C382.647,411.438,381.181,408.416,380.471,406.07z"/>
				<path style="fill:#4F4854;" d="M350.633,301.707c1.513-7.049,3.411-14.013,4.66-21.146c0.759-4.338,1.309-8.761,1.293-13.171
					c-0.046-12.093-17.32-13.865-25.998-16.09c-0.644-0.165-3.567-0.125-3.91-0.542c5.114,6.206,1.969,14.52,0.728,21.56
					c-1.439,8.154-2.794,16.322-4.101,24.499c-0.991,6.202-1.948,12.409-2.893,18.618c-1.231,5.137-2.143,10.367-3.051,15.558
					c-2.727,15.603,0.8,32.594,18.925,35.887c3.546,0.644,9.818,1.391,12.666-1.517c1.264-1.291,1.548-3.11,1.656-4.839
					c0.205-3.293-0.035-6.662-0.257-9.948c-0.749-11.147-2.644-22.263-1.994-33.464C348.66,311.87,349.547,306.767,350.633,301.707z
					"/>
				<path style="opacity:0.1;fill:#58325C;" d="M348.356,317.112c0.304-5.241,1.191-10.345,2.276-15.405
					c1.334-6.218,2.968-12.371,4.192-18.631c-0.727,0.248-1.412,0.564-1.992,1.016c-1.443,1.125-2.293,2.923-2.997,4.565
					c-1.724,4.022-2.68,8.391-5.194,12.044c-5.361,7.79-16.032,9.417-22.451,3.19c-0.515,3.306-1.026,6.613-1.53,9.92
					c1.106,3.205,2.464,6.407,4.753,8.869c1.399,1.505,2.954,2.775,5.005,3.226c1.896,0.417,3.875,0.239,5.779,0.634
					c6.975,1.448,9.04,10.681,10.283,16.623c1.508,7.212,2.55,15.083-3.274,20.755c-1.713,1.669-3.57,2.679-5.502,3.197
					c3.616,0.538,8.75,0.8,11.249-1.752c1.264-1.291,1.548-3.11,1.656-4.839c0.205-3.293-0.035-6.662-0.257-9.948
					C349.601,339.428,347.707,328.313,348.356,317.112z"/>
				<path style="fill:#4F4854;" d="M309.756,249.849c-4.451-1.112-9.185-1.148-13.716-0.218c-1.144,0.135-2.272,0.3-3.353,0.421
					c-5.387,0.602-10.796,0.97-16.192,1.484c-2.784,0.265-5.566,0.563-8.336,0.954c-1.513,0.213-4.047,0.273-5.94,0.805
					c-2.438-5.107-5.227-10.077-8.089-14.925c-1.688-2.858-3.31-6.098-5.428-8.665c-1.733-2.101-3.546-1.519-5.841-0.525
					c-1.796,0.778-3.575,1.594-5.337,2.447c-1.161,0.562-2.836,1.095-3.744,2.052c-1.576,1.661-0.201,4.223,0.36,6.046
					c1.741,5.664,3.57,11.656,6.059,17.172c1.818,5.801,4.322,11.162,9.732,14.415c5.563,3.344,12.087,5.31,18.444,6.472
					c2.899,0.53,5.828,0.732,8.773,0.527c1.105-0.077,9.53-0.898,9.674-2.124c-1.101,9.418,2.001,18.948,3.066,28.291
					c0.048,0.42,0.088,0.838,0.122,1.257c-0.814,13.21-3.661,25.817-9.745,37.679c-0.207,0.404,0.038,1.046,0.57,0.994
					c4.96-0.479,8.78,3.801,13.715,3.476c2.918-0.192,4.882-2.175,5.872-4.809c1.563-4.158,1.628-9.171,2.028-13.543
					c0.484-5.295,0.775-10.606,0.965-15.92c0.38-10.649,0.348-21.307,0.617-31.959c0.132-5.204,0.289-10.422,0.699-15.613
					c0.399-5.046,1.301-9.929,4.358-14.086c0.093-0.126,0.117-0.261,0.098-0.389c0.258-0.298,0.515-0.596,0.788-0.884
					C310.226,250.415,310.129,249.942,309.756,249.849z"/>
				<path style="fill:#3D3640;" d="M335.68,251.493c-2.995-0.823-6.186-1.677-9.293-1.865c-0.39-0.023-0.481,0.435-0.268,0.67
					c-0.028,0.133-0.016,0.28,0.062,0.432c4.217,8.252,1.153,17.434-0.24,26.035c-1.323,8.176-2.418,16.386-3.308,24.62
					c-0.071,0.654,0.893,0.836,1.19,0.322c2.065-3.562,2.663-7.578,3.691-11.51c1.193-4.566,2.77-9.035,4.722-13.333
					c1.801-3.966,5.498-10.636,2.315-14.59c1.687-2.589,2.971-5.463,3.127-8.205C337.772,252.394,337.216,251.915,335.68,251.493z"
					/>
				<path style="fill:#3D3640;" d="M310.466,248.215c-1.267-0.188-2.532-0.286-3.814-0.208c-1.087,0.066-2.652,0.091-3.597,0.663
					c-2.36,1.434,1.301,8.03,0.071,8.682c-4.78,2.536-2.698,11.628-2.323,15.803c0.74,8.231,1.492,16.445,2.503,24.646
					c0.023,0.324,0.038,0.651,0.063,0.975c0.035,0.443,0.67,0.45,0.694,0c0.442-8.317,0.081-16.63,0.862-24.943
					c0.401-4.276,1.036-8.533,2.023-12.715c0.462-1.956,0.997-3.896,1.62-5.808c0.555-1.703,1.426-3.42,1.889-5.165
					c0.032-0.075,0.062-0.153,0.094-0.229c0.061-0.065,0.096-0.148,0.094-0.23c0.091-0.228,0.179-0.459,0.263-0.695
					C311.013,248.698,310.787,248.263,310.466,248.215z"/>
				<path style="fill:#3D3640;" d="M289.659,265.157c1.59-4.021,3.251-8.114,5.694-11.708c0.799-1.176,1.995-2.904,3.412-4.246
					c-0.913,0.108-1.823,0.243-2.724,0.428c-1.144,0.135-2.272,0.3-3.353,0.421c-5.387,0.602-10.796,0.97-16.192,1.484
					c-2.784,0.265-5.566,0.563-8.336,0.954c-1.513,0.213-4.047,0.273-5.94,0.805c-2.438-5.107-5.227-10.077-8.089-14.925
					c-1.688-2.858-3.31-6.098-5.428-8.665c-1.733-2.101-3.546-1.519-5.841-0.525c-1.796,0.778-3.575,1.594-5.337,2.447
					c-1.161,0.562-2.836,1.095-3.744,2.052c-1.576,1.661-0.201,4.223,0.36,6.046c1.741,5.664,3.57,11.656,6.059,17.172
					c1.818,5.801,4.322,11.162,9.732,14.415c5.563,3.344,12.087,5.31,18.444,6.472c2.899,0.53,5.828,0.732,8.773,0.527
					c0.996-0.069,7.936-0.743,9.402-1.773C287.189,272.596,288.239,268.747,289.659,265.157z"/>
				<path style="opacity:0.1;fill:#58325C;" d="M259.412,256.984c1.125-1.351,2.252-2.648,3.446-3.844
					c-0.218,0.047-0.433,0.097-0.638,0.155c-2.438-5.107-5.227-10.077-8.089-14.925c-0.276-0.468-0.551-0.948-0.826-1.431
					C256.047,243.341,257.865,250.158,259.412,256.984z"/>
				<path style="opacity:0.1;fill:#58325C;" d="M296.04,249.632c-0.692,0.082-1.374,0.172-2.049,0.259
					c-1.241,3.134-3.107,6.067-5.236,8.58c-8.711,10.282-23.411,15.107-36.05,9.488c-6.045-2.687-10.382-8.15-13.654-13.765
					c0.369,0.91,0.747,1.813,1.148,2.702c1.818,5.801,4.322,11.162,9.732,14.415c5.563,3.344,12.087,5.31,18.444,6.472
					c2.899,0.53,5.828,0.732,8.773,0.527c0.996-0.069,7.936-0.743,9.402-1.773c0.638-3.94,1.688-7.789,3.108-11.379
					c1.59-4.021,3.251-8.114,5.694-11.708c0.799-1.176,1.995-2.904,3.412-4.246C297.851,249.311,296.941,249.447,296.04,249.632z"/>
				<path style="fill:#EB9B67;" d="M353.502,266.208c-1.452-2.943-4.893-4.35-8.125-4.744c-1.951-0.238-3.992-0.179-5.843,0.401
					c-0.808,0.253-1.579,0.605-2.291,1.075c-5.634,3.72-4.783,12.674-5.4,18.666c-0.48,4.663-0.906,9.368-1.039,14.076
					c-1.041-1.197-2.111-2.369-3.218-3.507c-1.556-1.599-7.001-6.403-11.803-9.343c0.767-1.55,1.145-3.264,1.686-4.909
					c0.742-2.258,2.195-4.097,2.608-6.474c0.327-1.882-2.657-0.249-3.139,0.24c-0.667,0.677-1.848,2.084-1.717,3.099
					c-0.41-1.019-1.127-1.827-1.551-2.839c-0.988-2.358-1.726-4.859-2.815-7.164c-0.673-1.424-1.826-4.333-3.734-3.968
					c-0.395,0.076-0.61,0.355-0.709,0.738c-0.199,0.765,0.227,1.519,0.474,2.222c0.46,1.312,0.904,2.63,1.302,3.964
					c0.364,1.216,0.612,2.531,0.884,3.84c-0.238,0.07-0.471,0.156-0.701,0.254c-0.99-2.026-2.243-3.994-3.51-5.752
					c-0.858-1.191-2.39-3.489-4.087-2.775c-0.209,0.088-0.376,0.303-0.399,0.535c-0.094,0.952,0.533,1.731,0.939,2.544
					c0.658,1.317,1.29,2.648,1.905,3.987c0.351,0.763,0.683,1.536,1.007,2.311c-0.521-0.532-6.85-6.146-6.989-3.972
					c-0.118,1.911,1.822,3.27,2.962,4.54c1.145,1.275,2.251,2.663,3.454,3.926c-0.02,0.06-0.035,0.12-0.054,0.18
					c-2.175-1.807-4.914-3.369-7.506-3.259c-0.534,0.023-0.818,0.793-0.487,1.186c1.514,1.796,3.747,2.632,5.626,3.971
					c0.614,0.438,1.384,0.806,1.847,1.426c0.435,0.583,0.587,1.389,0.958,2.026c0.428,0.735,0.964,1.407,1.565,1.998
					c0.754,0.741,1.667,1.411,2.67,1.803c2.894,10.917,8.62,20.012,17.828,26.905c3.441,2.575,11.237,8.063,14.424,3.068
					c0.243-0.17,0.476-0.355,0.693-0.554c1.392-1.28,2.275-3.016,3.061-4.744c5.292-11.636,7.451-24.457,9.559-37.111
					C354.277,271.446,354.688,268.612,353.502,266.208z"/>
				<path style="fill:#3D3640;" d="M348.512,260.272c-6.961-3.039-12.953-1.047-15.065,6.5c-0.862,3.08-1.658,6.21-2.351,9.32
					c-1.135,5.099-1.682,10.346-2.15,15.542c-2.061-2.121-4.122-4.243-6.184-6.364c-0.341-0.351-0.703-0.715-1.169-0.864
					c-2.531-0.806-9.805,7.205-11.518,8.933c-2.604,2.626,0.272,5.226,2.056,7.561c2.729,3.57,5.643,6.998,8.735,10.258
					c2.986,3.149,6.138,6.467,10.126,8.339c2.988,1.402,6.491,1.873,9.64,0.709c3.178-1.175,4.881-3.82,6.055-6.864
					c2.27-5.888,3.847-12.087,4.775-18.364c1.84-7.036,3.068-14.28,3.529-21.54C355.35,267.789,354.088,262.707,348.512,260.272z"/>
				<path style="opacity:0.1;fill:#58325C;" d="M346.132,305.096c-2.597,4.437-5.823,8.839-11.51,8.628
					c-5.814-0.216-11.513-3.883-16.002-7.281c-3.476-2.63-6.623-5.701-9.168-9.229c0.615,1.275,1.785,2.514,2.68,3.686
					c2.729,3.57,5.643,6.998,8.735,10.258c2.986,3.149,6.138,6.467,10.126,8.339c2.988,1.402,6.491,1.873,9.64,0.709
					c3.178-1.175,4.881-3.82,6.055-6.864c2.27-5.888,3.847-12.087,4.775-18.364c0.035-0.133,0.066-0.268,0.1-0.402
					C349.975,298.215,348.098,301.737,346.132,305.096z"/>
				<path style="opacity:0.1;fill:#58325C;" d="M323.507,291.348c0.621,2.047,1.154,4.109,1.883,6.123
					c0.165,0.457,0.363,1.434,0.692,1.987c-0.231-0.626,1.162-1.177,1.6-1.725c1.449-1.814,1.593-4.331,1.322-6.714
					c-0.019,0.205-0.038,0.41-0.057,0.615c-2.061-2.121-4.122-4.243-6.184-6.364c-0.341-0.351-0.703-0.715-1.169-0.864
					c-0.339-0.108-0.766-0.054-1.25,0.119C321.776,286.554,322.751,288.854,323.507,291.348z"/>
				<path style="fill:#5A555E;" d="M319.562,225.761c0.061-0.158,0.091-0.302,0.082-0.421c-0.057-0.719-0.774-1.363-1.478-1.206
					c-0.493,0.11-0.855,0.556-1.008,1.037c-0.153,0.481-0.136,0.997-0.116,1.502c0.006,0.159,0.015,0.327,0.101,0.462
					C317.762,228.103,319.201,226.699,319.562,225.761z"/>
				<path style="fill:#5A555E;" d="M309.743,222.044c0.001-0.1-0.008-0.199-0.028-0.299c-0.117-0.581-0.799-1.224-1.437-1.087
					c-0.907,0.195-0.883,1.715-0.821,2.479c0.012,0.143,0.031,0.29,0.106,0.412c0.218,0.357,0.76,0.311,1.129,0.116
					C309.29,223.35,309.737,222.708,309.743,222.044z"/>
				<path style="fill:#B56B48;" d="M311.65,216.641c-1.6-1.04-3.577-0.763-4.999,0.454c-0.347,0.298,0.09,0.788,0.452,0.533
					c1.246-0.879,2.844-0.92,4.24-0.398C311.694,217.362,311.972,216.851,311.65,216.641z"/>
				<path style="fill:#B56B48;" d="M324.37,223.826c-0.535-2.257-2.486-4.503-4.897-4.759c-0.359-0.038-0.483,0.501-0.185,0.665
					c2.007,1.107,3.498,2.166,4.449,4.345C323.897,224.442,324.457,224.194,324.37,223.826z"/>
				<path style="fill:#B56B48;" d="M312.498,224.728c0.128-0.45-0.492-0.639-0.678-0.226c-0.236,0.522-0.29,1.068-0.483,1.602
					c-0.352,0.97-1.134,0.916-1.968,1.056c-0.462,0.077-0.849,0.256-1.117,0.659c-0.801,1.204,0.175,2.52,1.073,3.301
					c0.274,0.238,0.594-0.197,0.398-0.453c-0.673-0.881-1.789-2.479,0.104-2.754c0.486-0.07,0.866,0.024,1.314-0.245
					C312.113,227.083,312.22,225.702,312.498,224.728z"/>
				<path style="fill:#D16F6F;" d="M313.954,234.663c-2.067,1.133-4.327,1.374-5.975-0.589c-0.206-0.246-0.686-0.016-0.515,0.297
					c1.383,2.553,4.713,2.225,6.801,0.828C314.553,235.006,314.267,234.491,313.954,234.663z"/>
				<path style="fill:#B56B48;" d="M332.538,230.004c-1.681,0.23-3.256,2.123-3.045,3.835c0.037,0.3,0.49,0.306,0.578,0.037
					c0.226-0.697,0.415-1.345,0.884-1.929c0.043-0.054,0.094-0.095,0.14-0.144c0.407,0.564,0.609,1.176,0.551,1.884
					c-0.029,0.351,0.505,0.464,0.611,0.122c0.272-0.874,0.025-1.847-0.648-2.461c0.36-0.259,0.757-0.464,1.171-0.654
					C333.174,230.511,332.935,229.95,332.538,230.004z"/>
				<path style="fill:#56515E;" d="M382.568,394.045c-0.286,0.131-0.465,0.578-0.278,0.856c1.594,2.378,3.41,5.014,3.286,8.008
					c-0.153,3.669-3.244,5.822-0.567,9.202c1.918,2.421,4.803,3.83,6.954,6.003c3.838,3.878,6.806,8.272,9.859,12.759
					c1.63,2.396,5,7.285,6.518,1.979c1.5-5.242,0.321-10.919-1.54-15.91c-0.903-2.421-1.953-4.969-3.367-7.143
					c-1.545-2.377-4.226-4.368-5.518-6.849c-0.017-0.032-0.032-0.064-0.048-0.096c0.751-0.296,1.442-0.717,1.542-1.522
					c0.122-0.981-0.488-2.202-0.74-3.141c-0.287-1.069-0.498-2.244-0.911-3.275c-0.526-1.314-1.422-1.791-2.802-1.77
					c-0.082,0.001-0.164,0.008-0.246,0.011C392.049,390.668,385.028,392.919,382.568,394.045z"/>
				<path style="fill:#81798C;" d="M396.099,396.712c0.479,2.198,0.188,5.232,1.322,7.183c0.599,1.031,1.701,1.808,2.5,2.687
					c1.002,1.102,1.924,2.316,2.762,3.546c3.184,4.674,4.893,10.246,5.628,15.816c0.198,1.502,0.437,3.467,0.38,5.393
					c0.909-4.807-0.209-9.881-1.892-14.394c-0.903-2.421-1.953-4.969-3.367-7.143c-1.545-2.377-4.226-4.368-5.517-6.849
					c-0.017-0.032-0.032-0.064-0.049-0.096c0.751-0.296,1.442-0.717,1.542-1.522c0.122-0.98-0.487-2.202-0.74-3.141
					c-0.287-1.069-0.498-2.243-0.911-3.274c-0.526-1.314-1.422-1.791-2.802-1.77c-0.041,0.001-0.081,0.003-0.122,0.005
					C395.428,394.375,395.861,395.614,396.099,396.712z"/>
				<g>
					<path style="fill:#81798C;" d="M403.772,421.79c0.382-0.172,0.122-0.77-0.269-0.673c-2.319,0.578-4.38,2.056-5.676,4.026
						c0.278,0.381,0.555,0.763,0.829,1.148C399.86,424.355,401.539,422.796,403.772,421.79z"/>
					<path style="fill:#81798C;" d="M392.612,418.8c1.295-1.524,2.668-2.834,4.506-3.97c0.379-0.234,0.156-0.934-0.307-0.767
						c-1.94,0.7-3.824,2.091-5.055,3.858c0.068,0.066,0.141,0.126,0.207,0.193C392.185,418.34,392.395,418.572,392.612,418.8z"/>
					<path style="fill:#81798C;" d="M400.766,417.038c-2.452,0.533-4.626,2.106-5.971,4.202c0.284,0.339,0.561,0.683,0.838,1.028
						c1.299-1.966,3.081-3.482,5.433-4.481C401.501,417.601,401.196,416.944,400.766,417.038z"/>
				</g>
				<path style="fill:#56515E;" d="M279.613,426.245c-0.058-0.309-0.448-0.591-0.763-0.478c-2.694,0.969-5.692,2.09-8.566,1.241
					c-3.522-1.04-4.859-4.562-8.789-2.786c-2.814,1.272-4.883,3.729-7.513,5.286c-4.695,2.78-9.678,4.592-14.772,6.462
					c-2.72,0.999-8.282,3.08-3.503,5.842c4.721,2.729,10.514,2.965,15.807,2.372c2.568-0.287,5.294-0.687,7.747-1.53
					c2.681-0.921,5.264-3.038,7.985-3.688c0.035-0.008,0.07-0.015,0.105-0.024c0.105,0.8,0.345,1.573,1.101,1.865
					c0.922,0.356,2.255,0.062,3.227,0.045c1.107-0.019,2.298,0.062,3.398-0.088c1.402-0.191,2.083-0.944,2.398-2.288
					c0.019-0.08,0.032-0.161,0.049-0.241C280.585,436.263,280.107,428.905,279.613,426.245z"/>
				<path style="fill:#81798C;" d="M273.738,438.723c-2.249-0.07-5.121-1.089-7.289-0.463c-1.146,0.331-2.167,1.211-3.214,1.772
					c-1.313,0.704-2.714,1.304-4.111,1.818c-5.308,1.953-11.128,2.257-16.71,1.615c-1.505-0.173-3.469-0.419-5.323-0.943
					c4.442,2.051,9.635,2.199,14.422,1.663c2.568-0.287,5.294-0.687,7.747-1.53c2.681-0.921,5.264-3.038,7.984-3.688
					c0.035-0.008,0.07-0.015,0.105-0.024c0.105,0.8,0.345,1.573,1.101,1.865c0.922,0.356,2.254,0.062,3.227,0.045
					c1.107-0.019,2.297,0.062,3.398-0.088c1.402-0.191,2.083-0.944,2.398-2.288c0.009-0.039,0.017-0.08,0.025-0.12
					C276.167,438.639,274.86,438.758,273.738,438.723z"/>
				<g>
					<path style="fill:#81798C;" d="M247.547,440.071c0.074,0.413,0.717,0.305,0.718-0.097c0.003-2.39-0.93-4.748-2.526-6.484
						c-0.437,0.177-0.875,0.353-1.315,0.525C246.01,435.653,247.113,437.661,247.547,440.071z"/>
					<path style="fill:#81798C;" d="M253.159,429.972c1.163,1.626,2.101,3.277,2.756,5.335c0.135,0.424,0.868,0.379,0.819-0.111
						c-0.207-2.052-1.099-4.217-2.514-5.841c-0.08,0.05-0.157,0.105-0.238,0.154C253.709,429.67,253.433,429.817,253.159,429.972z"
						/>
					<path style="fill:#81798C;" d="M252.887,438.31c0.079-2.508-0.919-4.999-2.625-6.814c-0.398,0.193-0.799,0.379-1.201,0.563
						c1.591,1.738,2.629,3.835,3.027,6.359C252.162,438.886,252.874,438.75,252.887,438.31z"/>
				</g>
				<path style="fill:#568F8C;" d="M314.794,256.378c-0.347-2.632-3.029-5.851-5.785-6.233c-1.282-0.178-2.62,0.373-3.163,1.676
					c-0.142,0.339-0.072,3.118,0.152,2.982c-1.231,0.748-2.569,1.76-2.626,3.2c-0.065,1.642,1.62,2.838,3.229,3.174
					c2.675,0.559,5.618-0.441,7.399-2.514c0.402-0.468,0.759-1.015,0.812-1.631C314.83,256.821,314.823,256.603,314.794,256.378z"/>
				<path style="fill:#568F8C;" d="M317.87,257.239c1.123-2.406,4.65-4.668,7.393-4.203c1.276,0.216,2.386,1.144,2.512,2.55
					c0.033,0.366-0.87,2.995-1.043,2.798c0.949,1.084,1.92,2.452,1.541,3.842c-0.432,1.586-2.4,2.219-4.035,2.055
					c-2.719-0.272-5.225-2.112-6.299-4.624c-0.243-0.568-0.418-1.197-0.284-1.8C317.702,257.651,317.774,257.445,317.87,257.239z"/>
				<path style="fill:#4C807D;" d="M317.874,255.25c-0.449-0.301-0.9-0.469-1.336-0.527c-2.81-0.374-5.008,3.774-2.137,5.701
					c1.355,0.909,3.414,0.504,4.324-0.851C319.634,258.219,319.228,256.159,317.874,255.25z"/>
			</g>
			<g>
				<path style="fill:#FFF3DA;" d="M187.509,169.171c1.039-1.936,2.146-3.86,2.379-6.024c0.375-3.482-1.728-6.928-4.687-8.801
					c-2.959-1.874-6.623-2.36-10.114-2.076c-29.08,2.361-20.48,34.63-27.544,53.411c-1.002,2.663-2.384,5.514-1.498,8.218
					c0.718,2.19,2.756,3.651,4.758,4.791c5.276,3.004,11.189,4.882,17.232,5.471c5.816,0.567,12.322-0.337,16.217-4.694
					c2.913-3.257,3.82-7.897,3.576-12.26c-0.245-4.363-1.509-8.593-2.429-12.865c-1.703-7.908-2.157-16.5,1.386-23.772
					C187.014,170.101,187.26,169.636,187.509,169.171z"/>
				<path style="fill:#FFD581;" d="M195.832,158.92c-2.6-2.522-5.933-4.243-9.868-4.627c-10.741-1.047-23.138,6.566-26.775,16.718
					c-3.136,8.756-0.003,18.08,1.508,26.819c0.93,5.381,1.014,10.613-0.04,15.986c-0.95,4.839-2.539,9.521-4.019,14.215
					c-1.769,5.612-3.599,11.836-3.727,17.936c0.483,0.111,0.968,0.211,1.458,0.298c0.118-6.185,1.651-12.222,3.594-18.363
					c2.64-8.345,5.412-16.736,4.576-25.611c-0.807-8.565-4.181-16.978-3.355-25.665c0.575-6.049,3.518-11.008,7.881-14.59
					c-8.205,10.659-2.758,29.497-2.302,41.651c0.194,5.174,0.203,10.472-0.902,15.553c-0.979,4.501-2.686,8.796-4.334,13.083
					c-1.633,4.248-3.264,8.546-4.05,13.046c-0.052,0.299-0.129,0.657-0.211,1.045c1.578,0.246,3.17,0.419,4.722,0.628
					c0.396,0.053,0.792,0.102,1.187,0.149c0.703-1.613,1.541-3.206,2.242-4.786c-0.061,1.319-0.153,2.652-0.233,4.013
					c-0.019,0.321-0.034,0.652-0.049,0.983c2.854,0.268,5.707,0.364,8.592,0.21c5.458-0.292,10.793-1.393,15.99-2.99
					c0.792-1.605,1.469-3.247,2.081-4.69c1.757-4.143,3.034-8.483,3.78-12.922c0.83-4.939,1.034-9.979,0.543-14.965
					c-0.542-5.497-2.086-10.909-1.887-16.466c0.22-6.14,2.873-11.033,5.539-16.389c0.093-0.188,0.184-0.377,0.274-0.566
					c0.074-0.036,0.145-0.085,0.202-0.17c1.312-1.979,2.121-4.185,2.446-6.44c0.445,2.757,0.228,5.533-0.599,8.483
					c-1.727,6.161-5.441,13.678-1.205,19.64c0.262,0.369,0.802,0.056,0.607-0.355c-4.007-8.439,2.317-16.062,2.635-24.465
					C202.361,169.275,200.071,163.033,195.832,158.92z"/>
				<path style="opacity:0.1;fill:#58325C;" d="M197.743,165.238c-1.76,1.529-3.742,3.081-3.724,5.575
					c0.015,2.126,0.204,4.046-0.431,6.124c-0.884,2.891-2.796,5.28-5.661,6.371c-3.918,1.492-7.215,0.017-11.069-0.71
					c-2.428-0.458-4.97,0.821-4.854,3.493c0.07,1.622,0.382,3.074,0.187,4.715c-0.396,3.342-2.857,6.288-2.861,9.632
					c-0.002,2.33,1.268,4.583,2.161,6.673c0.835,1.956,1.686,3.908,2.437,5.898c1.64,4.345,2.686,8.88,2.753,13.54
					c0.104,7.149-1.072,14.327-3.661,20.97c5.007-0.386,9.911-1.426,14.696-2.897c0.792-1.605,1.469-3.247,2.081-4.69
					c1.757-4.143,3.034-8.483,3.78-12.922c0.83-4.939,1.034-9.979,0.543-14.965c-0.542-5.497-2.086-10.909-1.887-16.467
					c0.22-6.14,2.873-11.033,5.539-16.388c0.093-0.188,0.184-0.377,0.274-0.566c0.074-0.036,0.145-0.085,0.201-0.171
					c1.312-1.979,2.121-4.184,2.446-6.44c0.445,2.757,0.228,5.533-0.599,8.483c-1.727,6.161-5.441,13.678-1.205,19.64
					c0.262,0.369,0.802,0.057,0.607-0.355c-4.007-8.44,2.317-16.062,2.635-24.465c0.151-3.977-0.796-8.036-2.665-11.521
					C198.888,164.273,198.308,164.747,197.743,165.238z"/>
				<path style="fill:#EBA073;" d="M214.358,342.148c-0.252-15.686-1.609-31.354-4.057-46.85
					c-1.345-8.516-3.026-17.006-5.719-25.197c-1.089-3.312-2.406-6.675-4.858-9.154c-3.91-3.955-10.246-4.906-15.519-3.136
					c-5.273,1.769-9.512,5.907-12.348,10.691c-3.813,6.434-5.916,13.75-6.665,21.321c-1.255,12.685,1.29,26.085,5.958,37.248
					c5.033,12.036,13.138,22.761,23.298,30.94c-0.069,0.092-0.136,0.183-0.199,0.272c-6.89,9.673-11.176,22.828-13.011,34.354
					c-0.884,5.549-1.53,11.136-1.924,16.742c-0.38,5.402,1.247,10.274-1.141,15.486c-0.583,1.271-1.323,2.482-1.697,3.829
					c-1.046,3.763,2.344,8.475,5.483,10.234c1.656,0.928,3.54,1.349,5.394,1.758c4.104,0.906,8.207,1.812,12.311,2.718
					c1.171,0.259,2.384,0.518,3.561,0.328c0.089-0.014,0.178-0.031,0.267-0.051c1.26-0.279,2.457-1.285,2.516-2.573
					c0.055-1.2-0.837-2.214-1.697-3.053c-2.983-2.909-9.112-8.466-15.208-11.49c1.339-2.443,2.534-4.981,3.694-7.521
					c5.372-11.763,10.181-23.763,14.379-35.881c2.307-6.66,4.435-13.376,5.949-20.099
					C214.633,356.361,214.468,348.996,214.358,342.148z"/>
				<path style="opacity:0.1;fill:#58325C;" d="M179.275,410.32c-0.104,3.331,0.426,6.478,0.15,9.647
					c3.057,2.345,7.304,3.236,11.491,3.077c0.647-1.324,1.27-2.661,1.881-3.999c0.679-1.486,1.348-2.976,2.009-4.469
					C189.175,414.758,183.432,413.782,179.275,410.32z"/>
				<path style="fill:#F7ECD4;" d="M199.37,433.12c-0.049-0.035-0.098-0.069-0.146-0.103c-0.159-0.111-0.319-0.222-0.479-0.332
					c-1.594-1.102-3.652,1.632-5.035,2.097c-2.85,0.959-7.087-0.452-9.746-1.587c-1.641-0.7-3.17-1.654-4.53-2.799
					c-0.447-0.376-2.221-1.828-2.993-2.878c-0.301,0.774-0.603,1.547-0.824,2.339c-0.409,3.259-0.365,6.223,2.817,8.341
					c4.9,3.26,11.22,4.456,16.979,5.144c2.46,0.294,10.038,2.272,10.529-1.564C206.425,438.018,202.027,434.995,199.37,433.12z"/>
				<path style="fill:#F0E0C2;" d="M203.276,442.738c-3.083,0.848-6.787-0.153-9.857-0.651c-6.303-1.022-13.099-2.76-17.649-7.323
					c0.395,1.289,1.193,2.452,2.666,3.433c4.9,3.26,11.22,4.456,16.979,5.144c2.46,0.294,10.038,2.272,10.529-1.564
					c0.024-0.189,0.028-0.375,0.028-0.56C205.238,441.905,204.357,442.441,203.276,442.738z"/>
				<path style="fill:#F5A779;" d="M234.531,275.802c0.558,0.336,1.113,0.677,1.66,1.033c0.958,0.623,1.909,1.258,2.846,1.913
					c0.579,0.404,1.111,0.976,1.843,1.005c0.178,0.007,0.357-0.1,0.444-0.254c0.703-1.248-0.896-2.689-1.719-3.486
					c-1.215-1.176-2.59-2.364-4.035-3.353c0.096-0.169,0.183-0.342,0.259-0.52c0.968,0.352,1.942,0.686,2.831,1.1
					c0.975,0.454,1.933,0.94,2.886,1.44c0.51,0.267,1.042,0.68,1.642,0.607c0.3-0.037,0.532-0.175,0.627-0.475
					c0.458-1.45-1.642-2.66-2.659-3.337c-1.647-1.096-3.476-1.939-5.172-2.962c-0.728-0.439-1.274-1.084-2.008-1.513
					c0.758,0.21,1.938-0.561,2.515-1.009c0.417-0.324,1.939-2.477,0.479-2.423c-1.844,0.068-3.377,1.005-5.161,1.343
					c-1.62,0.306-3.298,0.396-4.789,1.169c-0.321,0.167-0.619,0.363-0.898,0.579c-1.108-1.731-2.253-3.439-3.439-5.118
					c-3.465-4.905-7.182-9.691-11.49-13.888c-1.686-1.643-3.445-3.252-5.389-4.587c-0.095-0.065-0.194-0.133-0.296-0.202
					c0.753-9.578,0.723-19.215,0.111-28.789c-0.318-4.977-1.144-10.617-4.902-13.291c-3.655-2.601-9.263-0.679-11.032,3.782
					c-0.906,2.283-0.868,4.869-0.712,7.347c0.752,11.966,3.685,25.003,9.859,34.943c0.375,0.604,0.813,1.222,1.315,1.71
					c0.412,1.324,0.913,2.559,1.289,3.453c1.293,3.073,3.201,5.888,5.577,8.226c4.757,4.679,11.361,6.782,17.305,9.521
					c-0.005,0.045-0.016,0.087-0.02,0.133c-0.097,1.276,0.497,2.542,1.236,3.547c0.392,0.533,0.851,1.022,1.369,1.435
					c0.448,0.358,1.046,0.562,1.447,0.964c0.427,0.427,0.634,1.068,0.908,1.593c0.839,1.609,1.263,3.441,2.482,4.814
					c0.267,0.3,0.879,0.161,0.947-0.253c0.329-2.011-0.597-4.314-1.764-6.205c0.047-0.008,0.095-0.014,0.142-0.023
					c0.845,1.074,1.794,2.085,2.653,3.115c0.856,1.025,1.704,2.684,3.166,2.796C238.549,281.802,234.885,276.265,234.531,275.802z"
					/>
				<path style="opacity:0.1;fill:#58325C;" d="M211.799,260.603c-2.141-2.868-3.99-5.745-4.603-9.326
					c-0.424-2.479-0.388-5.002-0.445-7.514c-0.314-0.236-0.625-0.476-0.948-0.698c-0.095-0.065-0.194-0.133-0.296-0.203
					c0.355-4.518,0.531-9.05,0.558-13.581c-4.277,3.034-8.282,6.462-10.753,10.804c1.034,2.368,2.198,4.642,3.519,6.768
					c0.375,0.604,0.813,1.222,1.315,1.71c0.412,1.324,0.913,2.559,1.289,3.453c1.293,3.073,3.201,5.888,5.577,8.226
					c2.867,2.82,6.407,4.703,10.067,6.355C215.181,264.725,213.391,262.735,211.799,260.603z"/>
				<path style="fill:#F5A779;" d="M209.222,279.635c-1.653-7.612-7.279-13.911-9.389-21.377c-1.296-4.586-0.374-9.056,0.861-13.568
					c2.584-9.443,8.417-19.734,4.988-29.615c-4.781-13.777-21.901-18.683-34.332-12.573c-1.485,0.73-2.887,1.666-4.002,2.889
					c-3.469,3.808-4.624,9.783-3.973,14.75c1.507,11.492,14.209,24.014,4.593,35.01c-24.503,28.019-21.982,71.109,1.982,98.879
					c-0.015,0.028-0.031,0.056-0.046,0.083c-5.624,10.46-8.23,24.048-8.607,35.713c-0.199,6.15-0.051,12.309,0.373,18.447
					c0.34,4.926,2.618,12.363,1.357,17.115c-1.291,4.866-1.988,10.19,2.761,13.907c1.495,1.17,3.293,1.873,5.062,2.561
					c3.917,1.522,7.834,3.044,11.751,4.566c1.118,0.435,2.277,0.876,3.469,0.868c0.09-0.001,0.181-0.004,0.271-0.01
					c1.287-0.084,2.624-0.895,2.879-2.159c0.238-1.178-0.488-2.316-1.21-3.277c-2.961-3.939-9.705-12.202-16.344-15.532
					c0.108-0.196,0.213-0.398,0.311-0.608c1.666-3.563,2.911-7.35,4.092-11.128c3.857-12.343,7.125-24.851,9.772-37.4
					c1.356-6.427,2.545-12.883,3.235-19.283c0.213-0.478,0.411-0.962,0.587-1.445c1.648-4.511,2.476-9.276,3.194-14.024
					c2.346-15.512,3.601-31.189,3.751-46.876c0.031-3.252,0.014-6.508-0.089-9.76c4.131-1.395,8.135-3.329,12.144-4.962
					C209.171,280.623,209.315,280.063,209.222,279.635z"/>
				<path style="opacity:0.1;fill:#58325C;" d="M161.624,407.513c0.017,0.253,0.031,0.507,0.048,0.76
					c0.177,2.56,0.874,5.797,1.329,8.984c2.775,2.695,6.448,4.828,10.255,5.485c1.064-2.667,1.958-5.418,2.817-8.165
					c0.353-1.129,0.695-2.262,1.038-3.394C171.745,411.875,165.641,410.89,161.624,407.513z"/>
				<path style="fill:#EBA073;" d="M176.258,198.398c0.734-1.928,0.882-3.882,0.88-6.048c-0.002-1.9-0.602-4.168,1.055-5.442
					c1.685-1,5.667-0.849,5.859,1.733c0.085,1.138,0.185,2.267,0.296,3.392c0.506,5.137,5.04,6.959,7.055,11.082
					c2.048,4.19-2.459,8.468-5.962,9.953c-4.354,1.847-9.391-4.448-11.007-7.849c-1.051-2.212,0.229-3.641,1.213-5.482
					C175.886,199.291,176.088,198.845,176.258,198.398z"/>
				<path style="opacity:0.1;fill:#58325C;" d="M177.137,192.467c1.376,2.857,3.364,5.778,6.513,5.97
					c1.206,0.074,2.321-0.256,3.355-0.834c-1.316-1.518-2.422-3.186-2.656-5.571c-0.111-1.125-0.211-2.254-0.296-3.392
					c-0.192-2.582-4.173-2.732-5.859-1.733c-1.657,1.275-1.057,3.542-1.055,5.443C177.138,192.389,177.137,192.428,177.137,192.467z
					"/>
				<path style="fill:#FFF3DA;" d="M222.623,340.549c-2.035-20.071-5.748-40.304-12.172-59.453
					c-3.268-9.743-7.381-19.141-10.428-28.953c1.107-2.432,2.072-4.932,2.962-7.423c4.557-12.753,8.874-25.458-0.038-37.457
					c-1.25-1.684-2.668-3.256-4.214-4.674c-2.191-2.011-3.298-3.377-6.399-3.204c-0.827,0.046-1.693-0.052-2.451,0.282
					c-0.666,0.294-1.147,0.879-1.674,1.382c-3.048,2.911-7.932,3.086-11.08,0.224c-0.614-0.558-1.144-1.213-1.82-1.695
					c-1.07-0.763-2.232-0.658-3.408-0.238c-2.158,0.77-4.308,1.707-6.38,2.685c-0.135,0.064-0.19,0.181-0.195,0.303
					c-2.842,1.464-3.592,6.192-3.875,8.966c-0.537,5.247,0.582,10.488,2.044,15.5c2.394,8.209,5.79,17.179,3.962,25.518
					c-1.474,1.786-3.238,3.41-4.848,4.989c-3.297,3.234-6.242,6.824-8.739,10.711c-5.208,8.104-8.298,17.281-9.515,26.815
					c-2.112,16.542,0.87,32.981,2.529,49.452c0.185,3.62,0.276,7.244,0.238,10.869c-0.09,8.592-0.873,17.194-2.697,25.599
					c-0.857,3.95-2.075,7.77-3.191,11.648c-0.788,2.738-1.453,5.686-1.07,8.541c3.738,3.386,7.65,6.326,12.373,8.712
					c11.884,6.006,25.624,7.744,38.786,6.644c6.792-0.567,13.516-2.02,19.975-4.188c0.929-0.312,1.845-0.651,2.753-1.005
					c0.049-0.09,0.105-0.172,0.152-0.263c5.912-11.554,6.376-26.513,8.085-39.164C223.688,361.291,223.679,350.964,222.623,340.549z
					"/>
				<path style="fill:#568F8C;" d="M204.333,240.891c-4.137,2.089-8.609,3.587-13.16,4.411c-7.153,1.294-16.622,1.598-23.482-2.156
					c0.403,3.094,0.422,6.17-0.234,9.166c-0.142,0.172-0.296,0.335-0.443,0.504c0.132,0.067,0.262,0.136,0.395,0.199
					c2.222,1.057,4.604,1.905,6.976,2.56c4.514,1.245,9.23,2.193,13.931,1.873c4.409-0.301,8.366-1.955,12.076-4.171
					c-0.121-0.378-0.25-0.754-0.368-1.134c1.107-2.432,2.072-4.932,2.962-7.423C203.441,243.443,203.894,242.166,204.333,240.891z"
					/>
				<path style="opacity:0.1;fill:#58325C;" d="M177.068,220.696c-0.611-3.958-2.343-7.389-5.957-9.455
					c-2.886-1.65-6.266-1.759-9.498-1.28c-0.067,0.474-0.12,0.926-0.162,1.332c-0.537,5.247,0.582,10.488,2.044,15.5
					c2.03,6.96,4.778,14.467,4.454,21.673c1.996,1.138,4.214,1.839,6.541,1.491c3.267-0.49,6.507-2.602,9.064-4.596
					c4.18-3.26,6.853-7.386,7.933-12.6c0.298-1.438,0.742-5.055-1.721-4.59c-1.79,0.339-3.171,2.475-4.785,3.264
					C178.812,234.454,177.639,224.397,177.068,220.696z"/>
				<path style="opacity:0.1;fill:#58325C;" d="M222.623,340.549c-2.035-20.071-5.748-40.304-12.172-59.453
					c-3.268-9.743-7.381-19.141-10.428-28.953c1.107-2.432,2.072-4.932,2.962-7.423c3.217-9.002,6.307-17.98,4.716-26.703
					c0.065,9.901-4.186,20.654-9.156,28.055c-1.208,1.799-2.661,3.634-3.346,5.716c-0.717,2.179-0.1,4.18,0.87,6.179
					c2.122,4.37,5.175,8.154,7.053,12.664c3.862,9.273,6.251,19.082,8.238,28.905c2.011,9.941,3.991,19.948,5.301,30.007
					c1.434,11.01,1.766,22.099,1.376,33.19c-0.33,9.399-1.02,18.903-2.484,28.203c-1.24,7.873-4.197,15.594-11.946,19.03
					c-3.833,1.7-7.939,2.382-12.025,3.183c-5.221,1.024-10.392,2.253-15.665,3.008c-0.064,0.009-0.129,0.018-0.193,0.027
					c5.19,0.527,10.436,0.54,15.595,0.109c6.792-0.567,13.516-2.02,19.975-4.188c0.929-0.312,1.845-0.651,2.753-1.005
					c0.049-0.09,0.105-0.172,0.152-0.263c5.912-11.554,6.376-26.513,8.085-39.164C223.688,361.291,223.679,350.964,222.623,340.549z
					"/>
				<path style="fill:#F5A779;" d="M170.078,184.234c1.201,1.048,3.175,1.961,4.845,1.653c0.867,1.635,1.957,3.168,3.086,4.521
					c3.021,3.621,7.388,9.029,12.599,6.024c4.483-2.585,9.118-9.234,9.473-14.443c0.333-4.894-2.846-18.788-9.365-18.848
					c-3.889-0.035-7.826,3.46-10.684,5.737c-2.132,1.699-4.537,3.483-5.838,5.946c-0.239,0.451-0.433,0.906-0.591,1.363
					c-1.742-0.986-3.893-0.916-5.181,1.309C167.099,179.781,168.225,182.617,170.078,184.234z"/>
				<path style="opacity:0.1;fill:#58325C;" d="M197.879,170.529c0.052,0.178,0.106,0.355,0.156,0.534
					c1.433,5.129,0.925,10.146-1.511,14.896c-1.965,3.831-5.056,7.222-9.035,8.983c-1.459,0.646-2.995,0.909-4.393,0.687
					c2.216,1.622,4.745,2.398,7.513,0.803c4.483-2.585,9.118-9.234,9.473-14.443C200.251,179.497,199.508,174.674,197.879,170.529z"
					/>
				<path style="fill:#FFF3DA;" d="M184.372,436.266c-0.044-0.04-0.089-0.08-0.133-0.119c-0.145-0.129-0.29-0.258-0.436-0.387
					c-1.453-1.283-3.819,1.189-5.247,1.488c-2.943,0.616-6.984-1.286-9.49-2.727c-1.546-0.889-2.952-2.017-4.167-3.315
					c-0.399-0.426-1.989-2.077-2.632-3.211c-0.391,0.733-0.782,1.465-1.094,2.225c-0.791,3.188-1.098,6.136,1.812,8.615
					c4.48,3.816,10.616,5.75,16.253,7.113c2.408,0.582,9.7,3.441,10.64-0.309C190.799,441.963,186.789,438.441,184.372,436.266z"/>
				<path style="fill:#F0E0C2;" d="M187.115,446.277c-3.161,0.478-6.721-0.953-9.712-1.81c-6.138-1.759-12.682-4.287-16.661-9.356
					c0.24,1.326,0.895,2.576,2.243,3.724c4.48,3.816,10.616,5.75,16.253,7.113c2.408,0.582,9.7,3.441,10.64-0.309
					c0.046-0.185,0.072-0.369,0.094-0.553C189.162,445.682,188.223,446.11,187.115,446.277z"/>
				<path style="fill:#5A555E;" d="M183.288,176.351c0.001-0.169,0.025-0.315,0.077-0.422c0.315-0.648,1.218-0.987,1.816-0.584
					c0.419,0.282,0.593,0.83,0.56,1.333c-0.033,0.504-0.238,0.978-0.44,1.441c-0.064,0.146-0.133,0.299-0.262,0.393
					C184.11,179.189,183.282,177.356,183.288,176.351z"/>
				<path style="fill:#5A555E;" d="M193.301,176.372c0.036-0.093,0.081-0.183,0.135-0.268c0.321-0.499,1.191-0.848,1.734-0.487
					c0.773,0.512,0.196,1.92-0.14,2.608c-0.063,0.129-0.135,0.259-0.249,0.345c-0.333,0.253-0.821,0.012-1.094-0.304
					C193.246,177.753,193.065,176.992,193.301,176.372z"/>
				<path style="fill:#995B3F;" d="M193.637,170.626c1.905-0.104,3.481,1.122,4.107,2.886c0.153,0.431-0.471,0.638-0.658,0.236
					c-0.642-1.383-2.007-2.215-3.477-2.458C193.239,171.228,193.253,170.646,193.637,170.626z"/>
				<path style="fill:#995B3F;" d="M179.518,172.795c1.322-1.906,3.958-3.286,6.296-2.644c0.348,0.095,0.266,0.643-0.07,0.687
					c-2.273,0.299-4.047,0.74-5.728,2.422C179.734,173.541,179.303,173.105,179.518,172.795z"/>
				<path style="fill:#995B3F;" d="M171.318,178.551c1.643,0.423,2.989,2.485,2.581,4.161c-0.071,0.294-0.522,0.247-0.578-0.03
					c-0.144-0.718-0.257-1.384-0.655-2.019c-0.036-0.058-0.082-0.105-0.122-0.16c-0.469,0.513-0.741,1.097-0.765,1.808
					c-0.012,0.351-0.555,0.402-0.621,0.051c-0.169-0.899,0.189-1.837,0.928-2.37c-0.328-0.299-0.698-0.548-1.087-0.785
					C170.628,178.981,170.93,178.451,171.318,178.551z"/>
				<path style="fill:#995B3F;" d="M189.296,177.527c0.045-0.466,0.691-0.416,0.714,0.037c0.029,0.573-0.12,1.1-0.135,1.668
					c-0.026,1.031,0.721,1.267,1.447,1.701c0.402,0.24,0.697,0.548,0.8,1.021c0.306,1.413-1.083,2.283-2.204,2.681
					c-0.342,0.122-0.481-0.4-0.205-0.567c0.948-0.574,2.571-1.655,0.908-2.602c-0.426-0.243-0.815-0.294-1.134-0.708
					C188.795,179.86,189.199,178.536,189.296,177.527z"/>
				<path style="fill:#995B3F;" d="M192.933,186.319c0.007,0.003,0.014,0.005,0.02,0.008c-0.125,0.956-0.608,2.042-1.102,2.88
					c-1.266,2.146-3.746,2.781-5.061,0.266c-0.5-0.957-0.688-2.144-0.643-3.315C186.179,185.36,192.231,186.061,192.933,186.319z"/>
				<path style="fill:#FF8989;" d="M192.083,188.789c-0.076,0.144-0.154,0.285-0.232,0.418c-1.266,2.146-3.746,2.781-5.061,0.266
					c-0.179-0.343-0.306-0.722-0.408-1.113C188.12,187.371,190.421,187.57,192.083,188.789z"/>
				<path style="opacity:0.15;" d="M187.469,157.35c-0.319-0.27-0.7,0.13-0.451,0.45c0.936,1.2,1.594,2.581,2.007,4.043
					c0.1,0.355,0.687,0.3,0.662-0.09C189.578,160.012,188.805,158.482,187.469,157.35z"/>
				<path style="opacity:0.15;" d="M190.895,158.87c-0.076-0.389-0.719-0.304-0.694,0.094c0.061,0.999,0.122,1.879,0.375,2.856
					c0.097,0.375,0.674,0.296,0.674-0.091C191.25,160.721,191.087,159.852,190.895,158.87z"/>
				<path style="opacity:0.15;" d="M170.459,162.298c-3.505,4.662-5.293,10.552-5.458,16.351c-0.197,6.96,3.377,13.188,2.419,20.153
					c-0.063,0.458,0.591,0.676,0.717,0.198c1.634-6.199-1.8-11.712-2.217-17.823c-0.458-6.712,1.547-12.925,5.068-18.57
					C171.202,162.264,170.689,161.992,170.459,162.298z"/>
				<path style="opacity:0.15;" d="M162.148,232.398c-1.799,3.726-3.216,7.844-3.423,12.004c-0.019,0.377,0.569,0.455,0.658,0.089
					c0.984-4.036,1.852-7.951,3.366-11.84C162.884,232.306,162.31,232.063,162.148,232.398z"/>
				<path style="opacity:0.15;" d="M183.979,163.746c-1.184-1.893-3.4-3.072-5.613-3.157c-0.345-0.013-0.434,0.549-0.083,0.613
					c2.126,0.389,3.735,1.357,5.206,2.922C183.73,164.381,184.168,164.048,183.979,163.746z"/>
				<path style="fill:#F5A779;" d="M187.163,236.329c1.384-2.581,2.441-5.318,3.376-8.089c0.374-1.108,1.057-2.547,1.523-3.95
					c0.909-0.155,1.783-0.589,2.521-1.107c0.542-0.38,1.041-0.827,1.466-1.335c0.368-0.44,0.587-1.033,0.998-1.424
					c0.438-0.417,1.082-0.609,1.614-0.87c1.628-0.801,3.47-1.182,4.87-2.37c0.306-0.26,0.182-0.875-0.231-0.952
					c-2.003-0.376-4.327,0.497-6.244,1.619c-0.007-0.047-0.011-0.095-0.019-0.142c1.093-0.819,2.126-1.745,3.176-2.58
					c1.045-0.831,2.723-1.641,2.869-3.1c0.162-1.661-5.459,1.872-5.931,2.216c0.349-0.55,0.703-1.097,1.071-1.635
					c0.645-0.943,1.303-1.879,1.979-2.801c0.418-0.569,1.002-1.088,1.047-1.818c0.011-0.178-0.092-0.36-0.244-0.45
					c-1.232-0.732-2.709,0.833-3.525,1.638c-1.204,1.187-2.424,2.534-3.446,3.956c-0.167-0.1-0.338-0.191-0.514-0.271
					c0.374-0.96,0.731-1.926,1.166-2.805c0.476-0.964,0.985-1.911,1.507-2.852c0.279-0.504,0.704-1.026,0.645-1.628
					c-0.03-0.3-0.162-0.536-0.46-0.638c-1.439-0.492-2.698,1.579-3.398,2.58c-1.134,1.621-2.02,3.429-3.082,5.102
					c-0.456,0.718-1.114,1.248-1.56,1.973c0.228-0.753-0.515-1.951-0.95-2.538c-0.314-0.424-2.431-1.996-2.412-0.535
					c0.025,1.845,0.926,3.399,1.222,5.191c0.269,1.626,0.319,3.306,1.057,4.815c0.213,0.435,0.477,0.832,0.779,1.189
					c-1.358,1.058-2.701,2.135-4.017,3.244c-3.443,2.901-6.806,5.938-9.882,9.236c1.274-7.409,1.337-15.216,0.609-22.473
					c-0.239-2.384-0.611-4.85-1.865-6.87c-2.451-3.947-8.283-4.834-11.474-1.746c-3.281,3.175-3.201,8.679-2.727,13.468
					c0.946,9.547,2.51,19.054,4.911,28.352c0.584,2.262,1.913,5.045,4.07,4.774c0.039-0.005,0.077-0.011,0.115-0.018
					c0.118-0.021,0.227-0.062,0.337-0.101c0.742-0.007,1.504-0.215,2.225-0.428C177.523,248.027,183.633,242.913,187.163,236.329z"
					/>
				<path style="opacity:0.1;fill:#58325C;" d="M168.409,238.535c2.145-0.527,4.054-1.909,5.749-3.488
					c1.25-7.365,1.309-15.115,0.587-22.323c-0.239-2.384-0.611-4.85-1.865-6.871c-0.651-1.048-1.543-1.872-2.557-2.472
					c-0.128,0.148-0.255,0.309-0.382,0.497c-1.559,2.331-0.77,6.248-0.491,8.849c0.519,4.837,1.435,9.696,1.261,14.579
					C170.57,231.28,169.326,234.8,168.409,238.535z"/>
				<path style="opacity:0.1;fill:#58325C;" d="M189.674,228.928c-2.49,4.105-5.457,7.965-8.781,11.43
					c-3.566,3.716-9.531,9.029-15.352,9.508c0.589,0.592,1.293,0.94,2.12,0.835c0.038-0.005,0.077-0.011,0.115-0.018
					c0.118-0.021,0.227-0.063,0.337-0.101c0.742-0.007,1.504-0.215,2.225-0.428c7.186-2.127,13.296-7.241,16.826-13.825
					c1.384-2.581,2.441-5.318,3.376-8.089c0.221-0.655,0.55-1.427,0.879-2.238C190.843,227.029,190.23,228.011,189.674,228.928z"/>
				<path style="fill:#568F8C;" d="M179.211,168.472c0.57-0.06,1.138-0.381,1.413-0.881c0.624-1.134-0.298-1.684-1.438-1.909
					c0.359-0.23,0.674-0.491,0.896-0.78c0.522-0.681,0.557-1.756-0.238-2.253c-0.662-0.414-1.423-0.214-2.137,0.277
					c-0.005-0.021-0.007-0.042-0.013-0.063c-0.156-0.564-0.645-1.132-1.29-0.975c-0.56,0.136-0.826,0.707-0.983,1.268
					c-0.543-0.345-1.203-0.506-1.795-0.239c-0.861,0.389-0.939,1.509-0.467,2.232c0.222,0.34,0.585,0.596,0.995,0.755
					c-1.343,0.729-2.352,2.046-0.948,3.16c1.05,0.833,2.068,0.372,2.746-0.509c0.46,1.081,1.419,2.008,2.391,1.701
					C179.139,170.004,179.34,169.203,179.211,168.472z"/>
				<path style="fill:#4C807D;" d="M201.822,163.676c0.428-0.413,0.687-1.038,0.592-1.622c-0.214-1.325-1.319-1.186-2.393-0.643
					c0.146-0.417,0.237-0.831,0.234-1.209c-0.008-0.89-0.665-1.791-1.633-1.69c-0.805,0.084-1.299,0.734-1.57,1.59
					c-0.018-0.014-0.033-0.03-0.051-0.043c-0.487-0.361-1.249-0.513-1.677,0.027c-0.371,0.468-0.224,1.106,0.006,1.664
					c-0.664,0.065-1.307,0.354-1.62,0.95c-0.456,0.867,0.196,1.833,1.043,2.123c0.399,0.137,0.859,0.114,1.296-0.018
					c-0.633,1.453-0.617,3.174,1.243,3.188c1.39,0.011,1.928-1.016,1.919-2.169c1.066,0.59,2.442,0.735,3.04-0.136
					C202.741,164.975,202.395,164.191,201.822,163.676z"/>
				<path style="fill:#568F8C;" d="M190.606,161.638c-0.385-0.327-0.935-0.494-1.42-0.365c-1.102,0.292-0.892,1.214-0.343,2.076
					c-0.364-0.089-0.722-0.131-1.042-0.097c-0.751,0.081-1.458,0.712-1.292,1.521c0.138,0.673,0.729,1.037,1.475,1.194
					c-0.01,0.016-0.022,0.03-0.032,0.047c-0.265,0.442-0.329,1.099,0.162,1.415c0.427,0.274,0.953,0.097,1.406-0.144
					c0.11,0.556,0.409,1.075,0.938,1.29c0.771,0.313,1.533-0.318,1.707-1.059c0.082-0.348,0.024-0.736-0.124-1.093
					c1.281,0.413,2.734,0.256,2.591-1.316c-0.107-1.176-1.019-1.545-1.993-1.441c0.41-0.95,0.418-2.125-0.369-2.557
					C191.627,160.753,190.994,161.111,190.606,161.638z"/>
				<path style="fill:#4C807D;" d="M172.112,163.271c0.266-0.649,0.25-1.447-0.129-2.033c-0.86-1.33-1.987-0.656-2.89,0.44
					c-0.039-0.519-0.138-1.01-0.32-1.417c-0.43-0.958-1.567-1.619-2.565-1.051c-0.83,0.472-1.056,1.408-0.942,2.461
					c-0.026-0.007-0.05-0.016-0.076-0.022c-0.697-0.159-1.593,0.038-1.798,0.823c-0.179,0.681,0.282,1.3,0.795,1.794
					c-0.686,0.384-1.243,1.002-1.299,1.794c-0.081,1.153,1.08,1.887,2.132,1.799c0.495-0.042,0.982-0.284,1.391-0.634
					c0.006,1.87,0.838,3.721,2.853,2.855c1.507-0.647,1.602-2.011,1.046-3.252c1.431,0.132,2.986-0.363,3.219-1.587
					C173.72,164.238,172.974,163.556,172.112,163.271z"/>
				<path style="fill:#4C807D;" d="M187.36,163.605c0.49-0.473,0.786-1.188,0.678-1.857c-0.245-1.517-1.509-1.357-2.74-0.735
					c0.167-0.477,0.271-0.951,0.268-1.384c-0.009-1.019-0.762-2.05-1.869-1.934c-0.922,0.096-1.487,0.84-1.797,1.82
					c-0.02-0.016-0.038-0.034-0.058-0.049c-0.557-0.414-1.43-0.587-1.919,0.03c-0.424,0.536-0.256,1.266,0.007,1.904
					c-0.76,0.074-1.495,0.406-1.854,1.088c-0.522,0.993,0.224,2.098,1.194,2.43c0.456,0.156,0.983,0.13,1.483-0.021
					c-0.724,1.663-0.706,3.633,1.422,3.649c1.591,0.012,2.207-1.162,2.197-2.482c1.22,0.675,2.795,0.842,3.479-0.156
					C188.412,165.09,188.015,164.194,187.36,163.605z"/>
			</g>
		</g>
	</g>
</g>
</svg>
